<svg width="1292" height="697" viewBox="0 0 1292 697" fill="none" xmlns="http://www.w3.org/2000/svg">
<path d="M11.7266 132H10.7266V133H11.7266V132ZM11.7266 45.8672V44.8672H10.7266V45.8672H11.7266ZM73.1914 57.5859L72.42 58.2223L72.4235 58.2265L73.1914 57.5859ZM72.957 120.34L72.1967 119.69L72.1948 119.693L72.957 120.34ZM23.3867 122.039H22.3867V123.039H23.3867V122.039ZM64.0508 113.426L63.2683 112.803L63.2658 112.806L64.0508 113.426ZM64.3438 64.5L63.5463 65.1034L63.5483 65.106L64.3438 64.5ZM23.3867 55.8281V54.8281H22.3867V55.8281H23.3867ZM12.7266 132V45.8672H10.7266V132H12.7266ZM11.7266 46.8672H17.5273V44.8672H11.7266V46.8672ZM17.5273 46.8672H47.1172V44.8672H17.5273V46.8672ZM47.1172 46.8672C57.7834 46.8672 66.1814 50.6603 72.42 58.2223L73.9628 56.9496C67.3108 48.8866 58.326 44.8672 47.1172 44.8672V46.8672ZM72.4235 58.2265C78.7178 65.7721 81.918 75.9908 81.918 88.9922H83.918C83.918 75.6654 80.6338 64.9467 73.9593 56.9454L72.4235 58.2265ZM81.918 88.9922C81.918 101.948 78.643 112.144 72.1967 119.69L73.7174 120.989C80.5523 112.988 83.918 102.286 83.918 88.9922H81.918ZM72.1948 119.693C65.8043 127.217 57.1703 131 46.1797 131V133C57.6891 133 66.9066 129.009 73.7193 120.987L72.1948 119.693ZM46.1797 131H17.5273V133H46.1797V131ZM17.5273 131H11.7266V133H17.5273V131ZM23.3867 123.039H44.7148V121.039H23.3867V123.039ZM44.7148 123.039C53.3309 123.039 60.0863 120.064 64.8358 114.045L63.2658 112.806C58.9528 118.272 52.8175 121.039 44.7148 121.039V123.039ZM64.8332 114.049C69.5945 108.066 71.9062 99.669 71.9062 88.9922H69.9062C69.9062 99.4091 67.6477 107.301 63.2684 112.803L64.8332 114.049ZM71.9062 88.9922C71.9062 78.2854 69.6961 69.8749 65.1392 63.894L63.5483 65.106C67.7414 70.6095 69.9062 78.5271 69.9062 88.9922H71.9062ZM65.1412 63.8966C60.5545 57.8356 54.0315 54.8281 45.7109 54.8281V56.8281C53.4841 56.8281 59.383 59.6019 63.5463 65.1034L65.1412 63.8966ZM45.7109 54.8281H23.3867V56.8281H45.7109V54.8281ZM22.3867 55.8281V122.039H24.3867V55.8281H22.3867ZM99.0312 132H98.0312V133H99.0312V132ZM99.0312 45.8672V44.8672H98.0312V45.8672H99.0312ZM162.02 45.8672H163.02V44.8672H162.02V45.8672ZM162.02 56.1797V57.1797H163.02V56.1797H162.02ZM110.691 56.1797V55.1797H109.691V56.1797H110.691ZM110.691 82.4883H109.691V83.4883H110.691V82.4883ZM157.566 82.4883H158.566V81.4883H157.566V82.4883ZM157.566 92.8008V93.8008H158.566V92.8008H157.566ZM110.691 92.8008V91.8008H109.691V92.8008H110.691ZM110.691 121.688H109.691V122.688H110.691V121.688ZM162.664 121.688H163.664V120.688H162.664V121.688ZM162.664 132V133H163.664V132H162.664ZM100.031 132V45.8672H98.0312V132H100.031ZM99.0312 46.8672H162.02V44.8672H99.0312V46.8672ZM161.02 45.8672V51.0234H163.02V45.8672H161.02ZM161.02 51.0234V56.1797H163.02V51.0234H161.02ZM162.02 55.1797H110.691V57.1797H162.02V55.1797ZM109.691 56.1797V82.4883H111.691V56.1797H109.691ZM110.691 83.4883H157.566V81.4883H110.691V83.4883ZM156.566 82.4883V87.6445H158.566V82.4883H156.566ZM156.566 87.6445V92.8008H158.566V87.6445H156.566ZM157.566 91.8008H110.691V93.8008H157.566V91.8008ZM109.691 92.8008V121.688H111.691V92.8008H109.691ZM110.691 122.688H162.664V120.688H110.691V122.688ZM161.664 121.688V126.844H163.664V121.688H161.664ZM161.664 126.844V132H163.664V126.844H161.664ZM162.664 131H99.0312V133H162.664V131ZM179.07 132H178.07V133H179.07V132ZM179.07 45.8672V44.8672H178.07V45.8672H179.07ZM236.316 52.1953L235.647 52.9386L235.654 52.9444L236.316 52.1953ZM236.316 88.7578L235.618 88.0419L235.615 88.0448L236.316 88.7578ZM216.746 95.6719L216.743 96.6719H216.746V95.6719ZM190.73 95.7891L190.712 94.7892L189.73 94.8073V95.7891H190.73ZM190.73 132V133H191.73V132H190.73ZM190.73 85.7109H189.73V86.7109H190.73V85.7109ZM227.176 81.9023L227.846 82.6446L227.852 82.6395L227.176 81.9023ZM227.176 59.2266L226.548 60.0053L226.555 60.0106L227.176 59.2266ZM190.73 55.8281V54.8281H189.73V55.8281H190.73ZM180.07 132V45.8672H178.07V132H180.07ZM179.07 46.8672H184.871V44.8672H179.07V46.8672ZM184.871 46.8672H216.746V44.8672H184.871V46.8672ZM216.746 46.8672C224.94 46.8672 231.197 48.9328 235.647 52.9386L236.985 51.452C232.061 47.0203 225.271 44.8672 216.746 44.8672V46.8672ZM235.654 52.9444C240.128 56.9004 242.406 62.4068 242.406 69.5977H244.406C244.406 61.9448 241.958 55.8496 236.979 51.4462L235.654 52.9444ZM242.406 69.5977C242.406 77.56 240.108 83.6633 235.618 88.0419L237.015 89.4737C241.978 84.6335 244.406 77.9634 244.406 69.5977H242.406ZM235.615 88.0448C231.162 92.4238 224.918 94.6719 216.746 94.6719V96.6719C225.293 96.6719 232.096 94.3105 237.018 89.4708L235.615 88.0448ZM216.75 94.6719C205.77 94.6328 197.09 94.6718 190.712 94.7892L190.749 96.7889C197.105 96.6719 205.769 96.6328 216.743 96.6719L216.75 94.6719ZM189.73 95.7891V132H191.73V95.7891H189.73ZM190.73 131H184.93V133H190.73V131ZM184.93 131H179.07V133H184.93V131ZM190.73 86.7109H213.875V84.7109H190.73V86.7109ZM213.875 86.7109C220.037 86.7109 224.767 85.4243 227.846 82.6446L226.506 81.1601C223.96 83.4585 219.823 84.7109 213.875 84.7109V86.7109ZM227.852 82.6395C230.947 79.8019 232.395 75.4572 232.395 69.832H230.395C230.395 75.1444 229.03 78.8465 226.5 81.1652L227.852 82.6395ZM232.395 69.832C232.395 64.7972 230.926 60.9199 227.796 58.4425L226.555 60.0106C229.051 61.9863 230.395 65.1794 230.395 69.832H232.395ZM227.803 58.4478C224.727 55.9702 220.017 54.8281 213.875 54.8281V56.8281C219.843 56.8281 223.999 57.9517 226.548 60.0053L227.803 58.4478ZM213.875 54.8281H190.73V56.8281H213.875V54.8281ZM189.73 55.8281V85.7109H191.73V55.8281H189.73ZM250.496 132L249.561 131.647L249.05 133H250.496V132ZM283.016 45.8672V44.8672H282.324L282.08 45.514L283.016 45.8672ZM296.316 45.8672L297.258 45.5291L297.02 44.8672H296.316V45.8672ZM327.254 132V133H328.676L328.195 131.662L327.254 132ZM314.715 132L313.771 132.33L314.005 133H314.715V132ZM305.984 107.039L306.928 106.709L306.694 106.039H305.984V107.039ZM271.531 107.039V106.039H270.829L270.591 106.699L271.531 107.039ZM262.508 132V133H263.21L263.448 132.34L262.508 132ZM289.109 58.5234L290.054 58.1946L289.128 55.5347L288.169 58.1831L289.109 58.5234ZM275.281 96.7266L274.341 96.3862L273.856 97.7266H275.281V96.7266ZM302.41 96.7266V97.7266H303.817L303.355 96.3978L302.41 96.7266ZM251.432 132.353L283.951 46.2204L282.08 45.514L249.561 131.647L251.432 132.353ZM283.016 46.8672H289.637V44.8672H283.016V46.8672ZM289.637 46.8672H296.316V44.8672H289.637V46.8672ZM295.375 46.2052L326.313 132.338L328.195 131.662L297.258 45.5291L295.375 46.2052ZM327.254 131H320.984V133H327.254V131ZM320.984 131H314.715V133H320.984V131ZM315.659 131.67L306.928 106.709L305.04 107.369L313.771 132.33L315.659 131.67ZM305.984 106.039H271.531V108.039H305.984V106.039ZM270.591 106.699L261.567 131.66L263.448 132.34L272.472 107.379L270.591 106.699ZM262.508 131H256.531V133H262.508V131ZM256.531 131H250.496V133H256.531V131ZM288.169 58.1831L274.341 96.3862L276.222 97.0669L290.05 58.8638L288.169 58.1831ZM275.281 97.7266H302.41V95.7266H275.281V97.7266ZM303.355 96.3978L290.054 58.1946L288.165 58.8522L301.466 97.0554L303.355 96.3978ZM339.383 132H338.383V133H339.383V132ZM339.383 45.8672V44.8672H338.383V45.8672H339.383ZM400.32 51.8438L399.679 52.6109L399.683 52.614L400.32 51.8438ZM400.027 86.9414L400.672 87.7057L400.679 87.7002L400.027 86.9414ZM395.984 89.7539L395.491 88.8842L393.836 89.8235L395.548 90.6537L395.984 89.7539ZM397.918 90.6914L398.416 89.8244L398.386 89.8069L398.354 89.7916L397.918 90.6914ZM406.062 105.867L405.063 105.895L405.063 105.897L406.062 105.867ZM406.531 121.57L405.532 121.6V121.601L406.531 121.57ZM410.926 130.066H411.926V129.442L411.365 129.168L410.926 130.066ZM410.926 131.941V132.941H411.926V131.941H410.926ZM396.57 131.941L395.656 132.348L395.92 132.941H396.57V131.941ZM394.93 116.531L393.93 116.566L393.931 116.574L394.93 116.531ZM394.695 109.734L393.696 109.764L393.696 109.769L394.695 109.734ZM390.77 98.3086L390.086 99.0385L390.092 99.0443L390.77 98.3086ZM351.043 94.8516V93.8516H350.043V94.8516H351.043ZM351.043 132V133H352.043V132H351.043ZM351.043 84.7734H350.043V85.7734H351.043V84.7734ZM391.707 81.2578L392.391 81.9874L392.397 81.9817L391.707 81.2578ZM391.473 59.1094L390.812 59.8599L390.817 59.8647L391.473 59.1094ZM351.043 55.6523V54.6523H350.043V55.6523H351.043ZM340.383 132V45.8672H338.383V132H340.383ZM339.383 46.8672H345.184V44.8672H339.383V46.8672ZM345.184 46.8672H379.461V44.8672H345.184V46.8672ZM379.461 46.8672C388.474 46.8672 395.161 48.8338 399.679 52.6109L400.962 51.0766C395.948 46.8849 388.729 44.8672 379.461 44.8672V46.8672ZM399.683 52.614C404.165 56.325 406.469 61.8104 406.469 69.2461H408.469C408.469 61.3693 406.007 55.2531 400.958 51.0735L399.683 52.614ZM406.469 69.2461C406.469 76.5431 404.081 82.1449 399.376 86.1826L400.679 87.7002C405.896 83.2223 408.469 77.0272 408.469 69.2461H406.469ZM399.382 86.1771C398.18 87.1915 396.883 88.0938 395.491 88.8842L396.478 90.6236C397.976 89.7734 399.374 88.8007 400.672 87.7057L399.382 86.1771ZM395.548 90.6537L397.482 91.5912L398.354 89.7916L396.421 88.8541L395.548 90.6537ZM397.42 91.5584C402.294 94.3593 404.875 99.0605 405.063 105.895L407.062 105.84C406.859 98.4551 404.011 93.0391 398.416 89.8244L397.42 91.5584ZM405.063 105.897L405.532 121.6L407.531 121.54L407.062 105.837L405.063 105.897ZM405.532 121.601C405.611 124.206 405.944 126.253 406.639 127.596L408.416 126.677C407.938 125.755 407.608 124.091 407.531 121.54L405.532 121.601ZM406.639 127.596C407.36 128.99 408.7 130.092 410.487 130.965L411.365 129.168C409.792 128.4 408.866 127.549 408.416 126.677L406.639 127.596ZM409.926 130.066V131.941H411.926V130.066H409.926ZM410.926 130.941H396.57V132.941H410.926V130.941ZM397.484 131.535C397.384 131.31 397.244 130.788 397.087 129.869C396.936 128.981 396.783 127.803 396.627 126.329L394.638 126.538C394.796 128.033 394.954 129.257 395.116 130.205C395.272 131.122 395.444 131.869 395.656 132.348L397.484 131.535ZM396.627 126.329C396.317 123.385 396.084 120.105 395.929 116.488L393.931 116.574C394.088 120.223 394.323 123.545 394.638 126.538L396.627 126.329ZM395.929 116.497L395.695 109.7L393.696 109.769L393.93 116.566L395.929 116.497ZM395.695 109.705C395.535 104.241 394.197 100.105 391.447 97.5729L390.092 99.0443C392.264 101.043 393.543 104.525 393.696 109.764L395.695 109.705ZM391.453 97.5787C388.718 95.0169 384.382 93.8516 378.699 93.8516V95.8516C384.188 95.8516 387.9 96.9909 390.086 99.0385L391.453 97.5787ZM378.699 93.8516H351.043V95.8516H378.699V93.8516ZM350.043 94.8516V132H352.043V94.8516H350.043ZM351.043 131H345.242V133H351.043V131ZM345.242 131H339.383V133H345.242V131ZM351.043 85.7734H379.871V83.7734H351.043V85.7734ZM379.871 85.7734C385.376 85.7734 389.624 84.5813 392.391 81.9874L391.023 80.5283C388.79 82.6218 385.147 83.7734 379.871 83.7734V85.7734ZM392.397 81.9817C395.174 79.3353 396.457 75.2667 396.457 70.0078H394.457C394.457 74.9833 393.241 78.4147 391.017 80.5339L392.397 81.9817ZM396.457 70.0078C396.457 64.8803 395.082 60.9168 392.128 58.3541L390.817 59.8647C393.176 61.9113 394.457 65.2135 394.457 70.0078H396.457ZM392.134 58.3589C389.248 55.8183 384.794 54.6523 378.992 54.6523V56.6523C384.597 56.6523 388.462 57.7911 390.812 59.8599L392.134 58.3589ZM378.992 54.6523H351.043V56.6523H378.992V54.6523ZM350.043 55.6523V84.7734H352.043V55.6523H350.043ZM446.375 132H445.375V133H446.375V132ZM446.375 56.1797H447.375V55.1797H446.375V56.1797ZM417.254 56.1797H416.254V57.1797H417.254V56.1797ZM417.254 45.8672V44.8672H416.254V45.8672H417.254ZM487.156 45.8672H488.156V44.8672H487.156V45.8672ZM487.156 56.1797V57.1797H488.156V56.1797H487.156ZM458.035 56.1797V55.1797H457.035V56.1797H458.035ZM458.035 132V133H459.035V132H458.035ZM447.375 132V56.1797H445.375V132H447.375ZM446.375 55.1797H417.254V57.1797H446.375V55.1797ZM418.254 56.1797V51.0234H416.254V56.1797H418.254ZM418.254 51.0234V45.8672H416.254V51.0234H418.254ZM417.254 46.8672H487.156V44.8672H417.254V46.8672ZM486.156 45.8672V51.0234H488.156V45.8672H486.156ZM486.156 51.0234V56.1797H488.156V51.0234H486.156ZM487.156 55.1797H458.035V57.1797H487.156V55.1797ZM457.035 56.1797V132H459.035V56.1797H457.035ZM458.035 131H452.234V133H458.035V131ZM452.234 131H446.375V133H452.234V131ZM509.012 132V133H510.012V132H509.012ZM497.703 132H496.703V133H497.703V132ZM497.703 45.8672V44.8672H496.703V45.8672H497.703ZM514.461 45.8672L515.409 45.5489L515.18 44.8672H514.461V45.8672ZM539.07 119.168L538.122 119.486L539.074 122.32L540.019 119.484L539.07 119.168ZM563.504 45.8672V44.8672H562.783L562.555 45.551L563.504 45.8672ZM580.262 45.8672H581.262V44.8672H580.262V45.8672ZM580.262 132V133H581.262V132H580.262ZM568.953 132H567.953V133H568.953V132ZM568.953 59.1094H569.953L568.005 58.7929L568.953 59.1094ZM544.637 132V133H545.357L545.585 132.316L544.637 132ZM533.387 132L532.439 132.318L532.667 133H533.387V132ZM509.012 59.3438L509.96 59.0257L508.012 59.3438H509.012ZM509.012 131H503.387V133H509.012V131ZM503.387 131H497.703V133H503.387V131ZM498.703 132V45.8672H496.703V132H498.703ZM497.703 46.8672H506.082V44.8672H497.703V46.8672ZM506.082 46.8672H514.461V44.8672H506.082V46.8672ZM513.513 46.1855L538.122 119.486L540.018 118.85L515.409 45.5489L513.513 46.1855ZM540.019 119.484L564.453 46.1834L562.555 45.551L538.122 118.852L540.019 119.484ZM563.504 46.8672H571.883V44.8672H563.504V46.8672ZM571.883 46.8672H580.262V44.8672H571.883V46.8672ZM579.262 45.8672V132H581.262V45.8672H579.262ZM580.262 131H574.637V133H580.262V131ZM574.637 131H568.953V133H574.637V131ZM569.953 132V59.1094H567.953V132H569.953ZM568.005 58.7929L543.688 131.684L545.585 132.316L569.902 59.4258L568.005 58.7929ZM544.637 131H539.012V133H544.637V131ZM539.012 131H533.387V133H539.012V131ZM534.335 131.682L509.96 59.0257L508.064 59.6618L532.439 132.318L534.335 131.682ZM508.012 59.3438V132H510.012V59.3438H508.012ZM599.188 132H598.188V133H599.188V132ZM599.188 45.8672V44.8672H598.188V45.8672H599.188ZM662.176 45.8672H663.176V44.8672H662.176V45.8672ZM662.176 56.1797V57.1797H663.176V56.1797H662.176ZM610.848 56.1797V55.1797H609.848V56.1797H610.848ZM610.848 82.4883H609.848V83.4883H610.848V82.4883ZM657.723 82.4883H658.723V81.4883H657.723V82.4883ZM657.723 92.8008V93.8008H658.723V92.8008H657.723ZM610.848 92.8008V91.8008H609.848V92.8008H610.848ZM610.848 121.688H609.848V122.688H610.848V121.688ZM662.82 121.688H663.82V120.688H662.82V121.688ZM662.82 132V133H663.82V132H662.82ZM600.188 132V45.8672H598.188V132H600.188ZM599.188 46.8672H662.176V44.8672H599.188V46.8672ZM661.176 45.8672V51.0234H663.176V45.8672H661.176ZM661.176 51.0234V56.1797H663.176V51.0234H661.176ZM662.176 55.1797H610.848V57.1797H662.176V55.1797ZM609.848 56.1797V82.4883H611.848V56.1797H609.848ZM610.848 83.4883H657.723V81.4883H610.848V83.4883ZM656.723 82.4883V87.6445H658.723V82.4883H656.723ZM656.723 87.6445V92.8008H658.723V87.6445H656.723ZM657.723 91.8008H610.848V93.8008H657.723V91.8008ZM609.848 92.8008V121.688H611.848V92.8008H609.848ZM610.848 122.688H662.82V120.688H610.848V122.688ZM661.82 121.688V126.844H663.82V121.688H661.82ZM661.82 126.844V132H663.82V126.844H661.82ZM662.82 131H599.188V133H662.82V131ZM689.305 132V133H690.305V132H689.305ZM678.055 132H677.055V133H678.055V132ZM678.055 45.8672V44.8672H677.055V45.8672H678.055ZM692.059 45.8672L692.91 45.3428L692.617 44.8672H692.059V45.8672ZM735.184 115.887L734.332 116.411L736.184 119.417V115.887H735.184ZM735.184 45.8672V44.8672H734.184V45.8672H735.184ZM746.434 45.8672H747.434V44.8672H746.434V45.8672ZM746.434 132V133H747.434V132H746.434ZM733.66 132L732.815 132.534L733.109 133H733.66V132ZM689.305 61.7461L690.15 61.2122L688.305 58.2891V61.7461H689.305ZM689.305 131H683.68V133H689.305V131ZM683.68 131H678.055V133H683.68V131ZM679.055 132V45.8672H677.055V132H679.055ZM678.055 46.8672H685.027V44.8672H678.055V46.8672ZM685.027 46.8672H692.059V44.8672H685.027V46.8672ZM691.207 46.3916L734.332 116.411L736.035 115.362L692.91 45.3428L691.207 46.3916ZM736.184 115.887V45.8672H734.184V115.887H736.184ZM735.184 46.8672H740.809V44.8672H735.184V46.8672ZM740.809 46.8672H746.434V44.8672H740.809V46.8672ZM745.434 45.8672V132H747.434V45.8672H745.434ZM746.434 131H740.047V133H746.434V131ZM740.047 131H733.66V133H740.047V131ZM734.506 131.466L690.15 61.2122L688.459 62.28L732.815 132.534L734.506 131.466ZM688.305 61.7461V132H690.305V61.7461H688.305ZM786.453 132H785.453V133H786.453V132ZM786.453 56.1797H787.453V55.1797H786.453V56.1797ZM757.332 56.1797H756.332V57.1797H757.332V56.1797ZM757.332 45.8672V44.8672H756.332V45.8672H757.332ZM827.234 45.8672H828.234V44.8672H827.234V45.8672ZM827.234 56.1797V57.1797H828.234V56.1797H827.234ZM798.113 56.1797V55.1797H797.113V56.1797H798.113ZM798.113 132V133H799.113V132H798.113ZM787.453 132V56.1797H785.453V132H787.453ZM786.453 55.1797H757.332V57.1797H786.453V55.1797ZM758.332 56.1797V51.0234H756.332V56.1797H758.332ZM758.332 51.0234V45.8672H756.332V51.0234H758.332ZM757.332 46.8672H827.234V44.8672H757.332V46.8672ZM826.234 45.8672V51.0234H828.234V45.8672H826.234ZM826.234 51.0234V56.1797H828.234V51.0234H826.234ZM827.234 55.1797H798.113V57.1797H827.234V55.1797ZM797.113 56.1797V132H799.113V56.1797H797.113ZM798.113 131H792.312V133H798.113V131ZM792.312 131H786.453V133H792.312V131ZM18.2891 280.863L17.555 281.542L17.5566 281.544L18.2891 280.863ZM79.0508 215.062L78.3151 215.74L78.3168 215.742L79.0508 215.062ZM79.0508 280.863L78.3168 280.184L78.3166 280.184L79.0508 280.863ZM70.3789 222.562L69.6167 223.21L69.6187 223.212L70.3789 222.562ZM26.9609 222.562L27.7212 223.212L27.7231 223.21L26.9609 222.562ZM48.6406 292.344C36.3875 292.344 26.5465 288.278 19.0215 280.182L17.5566 281.544C25.5003 290.09 35.8937 294.344 48.6406 294.344V292.344ZM19.0231 280.184C11.4913 272.044 7.6875 261.346 7.6875 247.992H5.6875C5.6875 261.748 9.61805 272.964 17.555 281.542L19.0231 280.184ZM7.6875 247.992C7.6875 234.599 11.4918 223.881 19.0231 215.742L17.555 214.383C9.61756 222.962 5.6875 234.198 5.6875 247.992H7.6875ZM19.0231 215.742C26.5486 207.608 36.389 203.523 48.6406 203.523V201.523C35.8922 201.523 25.4983 205.798 17.555 214.383L19.0231 215.742ZM48.6406 203.523C60.9724 203.523 70.8305 207.609 78.3151 215.74L79.7865 214.385C71.8804 205.797 61.4651 201.523 48.6406 201.523V203.523ZM78.3168 215.742C85.848 223.881 89.6523 234.599 89.6523 247.992H91.6523C91.6523 234.198 87.7223 222.962 79.7848 214.383L78.3168 215.742ZM89.6523 247.992C89.6523 261.346 85.8485 272.044 78.3168 280.184L79.7848 281.542C87.7218 272.964 91.6523 261.748 91.6523 247.992H89.6523ZM78.3166 280.184C70.8325 288.276 60.974 292.344 48.6406 292.344V294.344C61.4635 294.344 71.8784 290.091 79.7849 281.542L78.3166 280.184ZM48.6406 284.031C57.8976 284.031 65.4288 280.695 71.1391 274.013L69.6187 272.714C64.3134 278.922 57.3524 282.031 48.6406 282.031V284.031ZM71.1391 274.013C76.8356 267.347 79.6406 258.641 79.6406 247.992H77.6406C77.6406 258.281 74.9378 266.489 69.6187 272.714L71.1391 274.013ZM79.6406 247.992C79.6406 237.305 76.8362 228.58 71.1391 221.913L69.6187 223.212C74.9373 229.436 77.6406 237.664 77.6406 247.992H79.6406ZM71.1411 221.915C65.4314 215.193 57.8997 211.836 48.6406 211.836V213.836C57.3503 213.836 64.3108 216.963 69.6167 223.21L71.1411 221.915ZM48.6406 211.836C39.4191 211.836 31.9075 215.194 26.1988 221.915L27.7231 223.21C33.03 216.962 39.9716 213.836 48.6406 213.836V211.836ZM26.2007 221.913C20.5037 228.58 17.6992 237.305 17.6992 247.992H19.6992C19.6992 237.664 22.4026 229.436 27.7212 223.212L26.2007 221.913ZM17.6992 247.992C17.6992 258.641 20.5043 267.347 26.2007 274.013L27.7212 272.714C22.402 266.489 19.6992 258.281 19.6992 247.992H17.6992ZM26.2007 274.013C31.9101 280.694 39.4212 284.031 48.6406 284.031V282.031C39.9694 282.031 33.0274 278.923 27.7212 272.714L26.2007 274.013ZM105.711 291H104.711V292H105.711V291ZM105.711 204.867V203.867H104.711V204.867H105.711ZM165.359 204.867H166.359V203.867H165.359V204.867ZM165.359 215.18V216.18H166.359V215.18H165.359ZM117.371 215.18V214.18H116.371V215.18H117.371ZM117.371 241.488H116.371V242.488H117.371V241.488ZM159.383 241.488H160.383V240.488H159.383V241.488ZM159.383 251.801V252.801H160.383V251.801H159.383ZM117.371 251.801V250.801H116.371V251.801H117.371ZM117.371 291V292H118.371V291H117.371ZM106.711 291V204.867H104.711V291H106.711ZM105.711 205.867H165.359V203.867H105.711V205.867ZM164.359 204.867V210.023H166.359V204.867H164.359ZM164.359 210.023V215.18H166.359V210.023H164.359ZM165.359 214.18H117.371V216.18H165.359V214.18ZM116.371 215.18V241.488H118.371V215.18H116.371ZM117.371 242.488H159.383V240.488H117.371V242.488ZM158.383 241.488V246.645H160.383V241.488H158.383ZM158.383 246.645V251.801H160.383V246.645H158.383ZM159.383 250.801H117.371V252.801H159.383V250.801ZM116.371 251.801V291H118.371V251.801H116.371ZM117.371 290H111.57V292H117.371V290ZM111.57 290H105.711V292H111.57V290ZM12.8984 450H11.8984V451H12.8984V450ZM12.8984 363.867V362.867H11.8984V363.867H12.8984ZM24.5586 363.867H25.5586V362.867H24.5586V363.867ZM24.5586 450V451H25.5586V450H24.5586ZM13.8984 450V363.867H11.8984V450H13.8984ZM12.8984 364.867H18.6992V362.867H12.8984V364.867ZM18.6992 364.867H24.5586V362.867H18.6992V364.867ZM23.5586 363.867V450H25.5586V363.867H23.5586ZM24.5586 449H18.7578V451H24.5586V449ZM18.7578 449H12.8984V451H18.7578V449ZM55.7891 450V451H56.7891V450H55.7891ZM44.5391 450H43.5391V451H44.5391V450ZM44.5391 363.867V362.867H43.5391V363.867H44.5391ZM58.543 363.867L59.3944 363.343L59.1015 362.867H58.543V363.867ZM101.668 433.887L100.817 434.411L102.668 437.417V433.887H101.668ZM101.668 363.867V362.867H100.668V363.867H101.668ZM112.918 363.867H113.918V362.867H112.918V363.867ZM112.918 450V451H113.918V450H112.918ZM100.145 450L99.299 450.534L99.5933 451H100.145V450ZM55.7891 379.746L56.6346 379.212L54.7891 376.289V379.746H55.7891ZM55.7891 449H50.1641V451H55.7891V449ZM50.1641 449H44.5391V451H50.1641V449ZM45.5391 450V363.867H43.5391V450H45.5391ZM44.5391 364.867H51.5117V362.867H44.5391V364.867ZM51.5117 364.867H58.543V362.867H51.5117V364.867ZM57.6915 364.392L100.817 434.411L102.519 433.362L59.3944 363.343L57.6915 364.392ZM102.668 433.887V363.867H100.668V433.887H102.668ZM101.668 364.867H107.293V362.867H101.668V364.867ZM107.293 364.867H112.918V362.867H107.293V364.867ZM111.918 363.867V450H113.918V363.867H111.918ZM112.918 449H106.531V451H112.918V449ZM106.531 449H100.145V451H106.531V449ZM100.99 449.466L56.6346 379.212L54.9435 380.28L99.299 450.534L100.99 449.466ZM54.7891 379.746V450H56.7891V379.746H54.7891ZM131.844 450H130.844V451H131.844V450ZM131.844 363.867V362.867H130.844V363.867H131.844ZM193.309 375.586L192.537 376.222L192.541 376.227L193.309 375.586ZM193.074 438.34L192.314 437.69L192.312 437.693L193.074 438.34ZM143.504 440.039H142.504V441.039H143.504V440.039ZM184.168 431.426L183.386 430.803L183.383 430.806L184.168 431.426ZM184.461 382.5L183.664 383.103L183.666 383.106L184.461 382.5ZM143.504 373.828V372.828H142.504V373.828H143.504ZM132.844 450V363.867H130.844V450H132.844ZM131.844 364.867H137.645V362.867H131.844V364.867ZM137.645 364.867H167.234V362.867H137.645V364.867ZM167.234 364.867C177.901 364.867 186.299 368.66 192.537 376.222L194.08 374.95C187.428 366.887 178.443 362.867 167.234 362.867V364.867ZM192.541 376.227C198.835 383.772 202.035 393.991 202.035 406.992H204.035C204.035 393.665 200.751 382.947 194.076 374.945L192.541 376.227ZM202.035 406.992C202.035 419.948 198.76 430.144 192.314 437.69L193.835 438.989C200.67 430.988 204.035 420.286 204.035 406.992H202.035ZM192.312 437.693C185.921 445.217 177.287 449 166.297 449V451C177.806 451 187.024 447.009 193.836 438.987L192.312 437.693ZM166.297 449H137.645V451H166.297V449ZM137.645 449H131.844V451H137.645V449ZM143.504 441.039H164.832V439.039H143.504V441.039ZM164.832 441.039C173.448 441.039 180.203 438.064 184.953 432.045L183.383 430.806C179.07 436.272 172.935 439.039 164.832 439.039V441.039ZM184.95 432.049C189.712 426.066 192.023 417.669 192.023 406.992H190.023C190.023 417.409 187.765 425.301 183.386 430.803L184.95 432.049ZM192.023 406.992C192.023 396.285 189.813 387.875 185.256 381.894L183.666 383.106C187.859 388.609 190.023 396.527 190.023 406.992H192.023ZM185.258 381.897C180.672 375.836 174.149 372.828 165.828 372.828V374.828C173.601 374.828 179.5 377.602 183.664 383.103L185.258 381.897ZM165.828 372.828H143.504V374.828H165.828V372.828ZM142.504 373.828V440.039H144.504V373.828H142.504ZM277.156 443.379L277.863 444.086L277.866 444.084L277.156 443.379ZM227 443.73L226.293 444.438L226.295 444.44L227 443.73ZM218.328 363.867V362.867H217.328V363.867H218.328ZM229.988 363.867H230.988V362.867H229.988V363.867ZM235.672 435.82L234.931 436.492L234.934 436.495L235.672 435.82ZM268.777 435.82L268.036 435.149L268.036 435.149L268.777 435.82ZM274.461 363.867V362.867H273.461V363.867H274.461ZM286.121 363.867H287.121V362.867H286.121V363.867ZM285.121 418.418C285.121 428.849 282.193 436.891 276.447 442.674L277.866 444.084C284.073 437.836 287.121 429.237 287.121 418.418H285.121ZM276.449 442.672C270.705 448.415 262.686 451.344 252.254 451.344V453.344C263.072 453.344 271.654 450.295 277.863 444.086L276.449 442.672ZM252.254 451.344C241.367 451.344 233.24 448.519 227.705 443.021L226.295 444.44C232.323 450.427 241.032 453.344 252.254 453.344V451.344ZM227.707 443.023C222.172 437.489 219.328 429.344 219.328 418.418H217.328C217.328 429.68 220.265 438.41 226.293 444.438L227.707 443.023ZM219.328 418.418V363.867H217.328V418.418H219.328ZM218.328 364.867H224.129V362.867H218.328V364.867ZM224.129 364.867H229.988V362.867H224.129V364.867ZM228.988 363.867V417.539H230.988V363.867H228.988ZM228.988 417.539C228.988 425.692 230.917 432.064 234.931 436.492L236.413 435.149C232.849 431.217 230.988 425.402 230.988 417.539H228.988ZM234.934 436.495C238.965 440.9 244.795 443.031 252.254 443.031V441.031C245.181 441.031 239.957 439.022 236.41 435.145L234.934 436.495ZM252.254 443.031C259.712 443.031 265.526 440.9 269.519 436.492L268.036 435.149C264.529 439.022 259.327 441.031 252.254 441.031V443.031ZM269.518 436.492C273.533 432.064 275.461 425.692 275.461 417.539H273.461C273.461 425.402 271.6 431.217 268.036 435.149L269.518 436.492ZM275.461 417.539V363.867H273.461V417.539H275.461ZM274.461 364.867H280.262V362.867H274.461V364.867ZM280.262 364.867H286.121V362.867H280.262V364.867ZM285.121 363.867V418.418H287.121V363.867H285.121ZM357.195 388.828L356.2 388.921L356.284 389.828H357.195V388.828ZM350.75 376.289L350.129 377.073L350.138 377.08L350.75 376.289ZM332.586 399.082L332.818 398.109L332.814 398.108L332.586 399.082ZM347.586 402.656L347.354 403.629L347.355 403.629L347.586 402.656ZM364.812 411.152L364.075 411.828L364.079 411.832L364.812 411.152ZM361.062 445.488L360.453 444.696L360.45 444.698L361.062 445.488ZM310.672 444.434L310.028 445.199L310.032 445.202L310.672 444.434ZM301.414 422.461V421.461H300.414V422.461H301.414ZM312.137 422.461L313.136 422.43L313.106 421.461H312.137V422.461ZM353.328 438.34L353.881 439.173L353.328 438.34ZM355.203 418.301L355.832 417.524L355.831 417.522L355.203 418.301ZM340.555 412.734L340.787 411.762L340.786 411.762L340.555 412.734ZM325.555 409.16L325.786 408.187L325.785 408.187L325.555 409.16ZM312.84 368.789L313.492 369.547L313.492 369.547L312.84 368.789ZM367.918 388.828V389.828H368.965L368.917 388.782L367.918 388.828ZM358.191 388.735C357.661 383.072 355.401 378.621 351.362 375.498L350.138 377.08C353.677 379.816 355.714 383.725 356.2 388.921L358.191 388.735ZM351.371 375.505C347.393 372.356 342.092 370.836 335.574 370.836V372.836C341.791 372.836 346.607 374.284 350.129 377.073L351.371 375.505ZM335.574 370.836C328.907 370.836 323.677 372.122 320.034 374.843L321.231 376.446C324.385 374.089 329.117 372.836 335.574 372.836V370.836ZM320.034 374.843C316.343 377.602 314.535 381.633 314.535 386.777H316.535C316.535 382.156 318.126 378.766 321.231 376.446L320.034 374.843ZM314.535 386.777C314.535 390.35 315.771 393.163 318.347 395.029L319.52 393.409C317.565 391.993 316.535 389.845 316.535 386.777H314.535ZM318.347 395.029C320.795 396.801 325.531 398.456 332.358 400.056L332.814 398.108C325.969 396.505 321.604 394.918 319.52 393.409L318.347 395.029ZM332.354 400.055L347.354 403.629L347.818 401.683L332.818 398.109L332.354 400.055ZM347.355 403.629C355.318 405.523 360.833 408.292 364.075 411.828L365.55 410.477C361.917 406.513 355.948 403.617 347.817 401.683L347.355 403.629ZM364.079 411.832C367.293 415.302 368.969 420.281 368.969 426.914H370.969C370.969 419.953 369.207 414.424 365.546 410.473L364.079 411.832ZM368.969 426.914C368.969 434.432 366.132 440.324 360.453 444.696L361.672 446.281C367.868 441.512 370.969 435.021 370.969 426.914H368.969ZM360.45 444.698C354.78 449.091 347.013 451.344 337.039 451.344V453.344C347.3 453.344 355.548 451.026 361.675 446.279L360.45 444.698ZM337.039 451.344C325.938 451.344 317.404 448.742 311.312 443.665L310.032 445.202C316.596 450.672 325.641 453.344 337.039 453.344V451.344ZM311.316 443.669C305.398 438.687 302.414 431.873 302.414 423.105H300.414C300.414 432.385 303.602 439.789 310.028 445.199L311.316 443.669ZM302.414 423.105V422.461H300.414V423.105H302.414ZM301.414 423.461H312.137V421.461H301.414V423.461ZM311.137 422.492C311.34 428.993 313.714 434.113 318.317 437.721L319.55 436.147C315.481 432.957 313.324 428.428 313.136 422.43L311.137 422.492ZM318.317 437.721C322.888 441.303 329.17 443.031 337.039 443.031V441.031C329.44 441.031 323.651 439.361 319.55 436.147L318.317 437.721ZM337.039 443.031C344.276 443.031 349.934 441.79 353.881 439.173L352.775 437.506C349.3 439.811 344.099 441.031 337.039 441.031V443.031ZM353.881 439.173C357.894 436.512 359.895 432.573 359.895 427.5H357.895C357.895 431.958 356.184 435.246 352.775 437.506L353.881 439.173ZM359.895 427.5C359.895 423.158 358.596 419.761 355.832 417.524L354.574 419.078C356.732 420.825 357.895 423.561 357.895 427.5H359.895ZM355.831 417.522C353.215 415.412 348.126 413.518 340.787 411.762L340.322 413.707C347.671 415.466 352.348 417.283 354.575 419.079L355.831 417.522ZM340.786 411.762L325.786 408.187L325.323 410.133L340.323 413.707L340.786 411.762ZM325.785 408.187C318.274 406.406 313.076 403.961 310.027 400.949L308.621 402.372C312.057 405.765 317.679 408.32 325.324 410.133L325.785 408.187ZM310.027 400.949C307.019 397.977 305.461 393.825 305.461 388.359H303.461C303.461 394.222 305.145 398.937 308.621 402.372L310.027 400.949ZM305.461 388.359C305.461 380.37 308.155 374.138 313.492 369.547L312.188 368.031C306.353 373.049 303.461 379.865 303.461 388.359H305.461ZM313.492 369.547C318.889 364.9 326.213 362.523 335.574 362.523V360.523C325.873 360.523 318.04 362.991 312.187 368.031L313.492 369.547ZM335.574 362.523C345.095 362.523 352.559 364.901 358.074 369.553L359.364 368.025C353.394 362.989 345.428 360.523 335.574 360.523V362.523ZM358.074 369.553C363.573 374.192 366.539 380.595 366.919 388.874L368.917 388.782C368.515 380.03 365.348 373.073 359.364 368.025L358.074 369.553ZM367.918 387.828H357.195V389.828H367.918V387.828ZM406.414 450H405.414V451H406.414V450ZM406.414 374.18H407.414V373.18H406.414V374.18ZM377.293 374.18H376.293V375.18H377.293V374.18ZM377.293 363.867V362.867H376.293V363.867H377.293ZM447.195 363.867H448.195V362.867H447.195V363.867ZM447.195 374.18V375.18H448.195V374.18H447.195ZM418.074 374.18V373.18H417.074V374.18H418.074ZM418.074 450V451H419.074V450H418.074ZM407.414 450V374.18H405.414V450H407.414ZM406.414 373.18H377.293V375.18H406.414V373.18ZM378.293 374.18V369.023H376.293V374.18H378.293ZM378.293 369.023V363.867H376.293V369.023H378.293ZM377.293 364.867H447.195V362.867H377.293V364.867ZM446.195 363.867V369.023H448.195V363.867H446.195ZM446.195 369.023V374.18H448.195V369.023H446.195ZM447.195 373.18H418.074V375.18H447.195V373.18ZM417.074 374.18V450H419.074V374.18H417.074ZM418.074 449H412.273V451H418.074V449ZM412.273 449H406.414V451H412.273V449ZM459.5 450H458.5V451H459.5V450ZM459.5 363.867V362.867H458.5V363.867H459.5ZM520.438 369.844L519.796 370.611L519.8 370.614L520.438 369.844ZM520.145 404.941L520.789 405.706L520.796 405.7L520.145 404.941ZM516.102 407.754L515.608 406.884L513.953 407.824L515.665 408.654L516.102 407.754ZM518.035 408.691L518.533 407.824L518.503 407.807L518.471 407.792L518.035 408.691ZM526.18 423.867L525.18 423.895L525.18 423.897L526.18 423.867ZM526.648 439.57L525.649 439.6L525.649 439.601L526.648 439.57ZM531.043 448.066H532.043V447.442L531.482 447.168L531.043 448.066ZM531.043 449.941V450.941H532.043V449.941H531.043ZM516.688 449.941L515.774 450.348L516.038 450.941H516.688V449.941ZM515.047 434.531L514.047 434.566L514.048 434.574L515.047 434.531ZM514.812 427.734L513.813 427.764L513.813 427.769L514.812 427.734ZM510.887 416.309L510.203 417.039L510.209 417.044L510.887 416.309ZM471.16 412.852V411.852H470.16V412.852H471.16ZM471.16 450V451H472.16V450H471.16ZM471.16 402.773H470.16V403.773H471.16V402.773ZM511.824 399.258L512.508 399.987L512.514 399.982L511.824 399.258ZM511.59 377.109L510.929 377.86L510.934 377.865L511.59 377.109ZM471.16 373.652V372.652H470.16V373.652H471.16ZM460.5 450V363.867H458.5V450H460.5ZM459.5 364.867H465.301V362.867H459.5V364.867ZM465.301 364.867H499.578V362.867H465.301V364.867ZM499.578 364.867C508.592 364.867 515.278 366.834 519.796 370.611L521.079 369.077C516.065 364.885 508.846 362.867 499.578 362.867V364.867ZM519.8 370.614C524.282 374.325 526.586 379.81 526.586 387.246H528.586C528.586 379.369 526.124 373.253 521.075 369.073L519.8 370.614ZM526.586 387.246C526.586 394.543 524.198 400.145 519.493 404.183L520.796 405.7C526.013 401.222 528.586 395.027 528.586 387.246H526.586ZM519.5 404.177C518.297 405.191 517.001 406.094 515.608 406.884L516.595 408.624C518.093 407.773 519.492 406.801 520.789 405.706L519.5 404.177ZM515.665 408.654L517.599 409.591L518.471 407.792L516.538 406.854L515.665 408.654ZM517.537 409.558C522.411 412.359 524.992 417.061 525.18 423.895L527.179 423.84C526.976 416.455 524.128 411.039 518.533 407.824L517.537 409.558ZM525.18 423.897L525.649 439.6L527.648 439.54L527.179 423.837L525.18 423.897ZM525.649 439.601C525.728 442.206 526.062 444.253 526.756 445.596L528.533 444.677C528.056 443.755 527.725 442.091 527.648 439.54L525.649 439.601ZM526.756 445.596C527.477 446.99 528.818 448.092 530.604 448.965L531.482 447.168C529.909 446.4 528.984 445.549 528.533 444.677L526.756 445.596ZM530.043 448.066V449.941H532.043V448.066H530.043ZM531.043 448.941H516.688V450.941H531.043V448.941ZM517.601 449.535C517.501 449.31 517.361 448.788 517.205 447.869C517.053 446.981 516.9 445.803 516.745 444.329L514.755 444.538C514.913 446.033 515.072 447.257 515.233 448.205C515.389 449.122 515.561 449.869 515.774 450.348L517.601 449.535ZM516.745 444.329C516.435 441.385 516.201 438.105 516.046 434.488L514.048 434.574C514.205 438.223 514.44 441.545 514.755 444.538L516.745 444.329ZM516.046 434.497L515.812 427.7L513.813 427.769L514.047 434.566L516.046 434.497ZM515.812 427.705C515.653 422.241 514.314 418.105 511.564 415.573L510.209 417.044C512.381 419.043 513.66 422.525 513.813 427.764L515.812 427.705ZM511.57 415.579C508.835 413.017 504.5 411.852 498.816 411.852V413.852C504.305 413.852 508.017 414.991 510.203 417.038L511.57 415.579ZM498.816 411.852H471.16V413.852H498.816V411.852ZM470.16 412.852V450H472.16V412.852H470.16ZM471.16 449H465.359V451H471.16V449ZM465.359 449H459.5V451H465.359V449ZM471.16 403.773H499.988V401.773H471.16V403.773ZM499.988 403.773C505.493 403.773 509.741 402.581 512.508 399.987L511.14 398.528C508.907 400.622 505.265 401.773 499.988 401.773V403.773ZM512.514 399.982C515.291 397.335 516.574 393.267 516.574 388.008H514.574C514.574 392.983 513.358 396.415 511.134 398.534L512.514 399.982ZM516.574 388.008C516.574 382.88 515.199 378.917 512.245 376.354L510.934 377.865C513.293 379.911 514.574 383.213 514.574 388.008H516.574ZM512.251 376.359C509.366 373.818 504.911 372.652 499.109 372.652V374.652C504.714 374.652 508.58 375.791 510.929 377.86L512.251 376.359ZM499.109 372.652H471.16V374.652H499.109V372.652ZM470.16 373.652V402.773H472.16V373.652H470.16ZM546.57 450H545.57V451H546.57V450ZM546.57 363.867V362.867H545.57V363.867H546.57ZM558.23 363.867H559.23V362.867H558.23V363.867ZM558.23 450V451H559.23V450H558.23ZM547.57 450V363.867H545.57V450H547.57ZM546.57 364.867H552.371V362.867H546.57V364.867ZM552.371 364.867H558.23V362.867H552.371V364.867ZM557.23 363.867V450H559.23V363.867H557.23ZM558.23 449H552.43V451H558.23V449ZM552.43 449H546.57V451H552.43V449ZM570.77 450L569.834 449.647L569.323 451H570.77V450ZM603.289 363.867V362.867H602.598L602.354 363.514L603.289 363.867ZM616.59 363.867L617.531 363.529L617.293 362.867H616.59V363.867ZM647.527 450V451H648.949L648.469 449.662L647.527 450ZM634.988 450L634.044 450.33L634.279 451H634.988V450ZM626.258 425.039L627.202 424.709L626.967 424.039H626.258V425.039ZM591.805 425.039V424.039H591.103L590.864 424.699L591.805 425.039ZM582.781 450V451H583.483L583.722 450.34L582.781 450ZM609.383 376.523L610.327 376.195L609.401 373.535L608.443 376.183L609.383 376.523ZM595.555 414.727L594.614 414.386L594.129 415.727H595.555V414.727ZM622.684 414.727V415.727H624.091L623.628 414.398L622.684 414.727ZM571.705 450.353L604.225 364.22L602.354 363.514L569.834 449.647L571.705 450.353ZM603.289 364.867H609.91V362.867H603.289V364.867ZM609.91 364.867H616.59V362.867H609.91V364.867ZM615.649 364.205L646.586 450.338L648.469 449.662L617.531 363.529L615.649 364.205ZM647.527 449H641.258V451H647.527V449ZM641.258 449H634.988V451H641.258V449ZM635.932 449.67L627.202 424.709L625.314 425.369L634.044 450.33L635.932 449.67ZM626.258 424.039H591.805V426.039H626.258V424.039ZM590.864 424.699L581.841 449.66L583.722 450.34L592.745 425.379L590.864 424.699ZM582.781 449H576.805V451H582.781V449ZM576.805 449H570.77V451H576.805V449ZM608.443 376.183L594.614 414.386L596.495 415.067L610.323 376.864L608.443 376.183ZM595.555 415.727H622.684V413.727H595.555V415.727ZM623.628 414.398L610.327 376.195L608.438 376.852L621.739 415.055L623.628 414.398ZM658.25 450H657.25V451H658.25V450ZM658.25 363.867V362.867H657.25V363.867H658.25ZM669.91 363.867H670.91V362.867H669.91V363.867ZM669.91 439.688H668.91V440.688H669.91V439.688ZM713.562 439.688H714.562V438.688H713.562V439.688ZM713.562 450V451H714.562V450H713.562ZM659.25 450V363.867H657.25V450H659.25ZM658.25 364.867H664.051V362.867H658.25V364.867ZM664.051 364.867H669.91V362.867H664.051V364.867ZM668.91 363.867V439.688H670.91V363.867H668.91ZM669.91 440.688H713.562V438.688H669.91V440.688ZM712.562 439.688V444.844H714.562V439.688H712.562ZM712.562 444.844V450H714.562V444.844H712.562ZM713.562 449H658.25V451H713.562V449ZM759.031 450H758.031V451H759.031V450ZM759.031 363.867V362.867H758.031V363.867H759.031ZM820.496 375.586L819.725 376.222L819.728 376.227L820.496 375.586ZM820.262 438.34L819.501 437.69L819.5 437.693L820.262 438.34ZM770.691 440.039H769.691V441.039H770.691V440.039ZM811.355 431.426L810.573 430.803L810.57 430.806L811.355 431.426ZM811.648 382.5L810.851 383.103L810.853 383.106L811.648 382.5ZM770.691 373.828V372.828H769.691V373.828H770.691ZM760.031 450V363.867H758.031V450H760.031ZM759.031 364.867H764.832V362.867H759.031V364.867ZM764.832 364.867H794.422V362.867H764.832V364.867ZM794.422 364.867C805.088 364.867 813.486 368.66 819.725 376.222L821.267 374.95C814.616 366.887 805.631 362.867 794.422 362.867V364.867ZM819.728 376.227C826.022 383.772 829.223 393.991 829.223 406.992H831.223C831.223 393.665 827.938 382.947 821.264 374.945L819.728 376.227ZM829.223 406.992C829.223 419.948 825.948 430.144 819.501 437.69L821.022 438.989C827.857 430.988 831.223 420.286 831.223 406.992H829.223ZM819.5 437.693C813.109 445.217 804.475 449 793.484 449V451C804.994 451 814.211 447.009 821.024 438.987L819.5 437.693ZM793.484 449H764.832V451H793.484V449ZM764.832 449H759.031V451H764.832V449ZM770.691 441.039H792.02V439.039H770.691V441.039ZM792.02 441.039C800.636 441.039 807.391 438.064 812.141 432.045L810.57 430.806C806.258 436.272 800.122 439.039 792.02 439.039V441.039ZM812.138 432.049C816.899 426.066 819.211 417.669 819.211 406.992H817.211C817.211 417.409 814.952 425.301 810.573 430.803L812.138 432.049ZM819.211 406.992C819.211 396.285 817.001 387.875 812.444 381.894L810.853 383.106C815.046 388.609 817.211 396.527 817.211 406.992H819.211ZM812.446 381.897C807.859 375.836 801.336 372.828 793.016 372.828V374.828C800.789 374.828 806.688 377.602 810.851 383.103L812.446 381.897ZM793.016 372.828H770.691V374.828H793.016V372.828ZM769.691 373.828V440.039H771.691V373.828H769.691ZM846.336 450H845.336V451H846.336V450ZM846.336 363.867V362.867H845.336V363.867H846.336ZM909.324 363.867H910.324V362.867H909.324V363.867ZM909.324 374.18V375.18H910.324V374.18H909.324ZM857.996 374.18V373.18H856.996V374.18H857.996ZM857.996 400.488H856.996V401.488H857.996V400.488ZM904.871 400.488H905.871V399.488H904.871V400.488ZM904.871 410.801V411.801H905.871V410.801H904.871ZM857.996 410.801V409.801H856.996V410.801H857.996ZM857.996 439.688H856.996V440.688H857.996V439.688ZM909.969 439.688H910.969V438.688H909.969V439.688ZM909.969 450V451H910.969V450H909.969ZM847.336 450V363.867H845.336V450H847.336ZM846.336 364.867H909.324V362.867H846.336V364.867ZM908.324 363.867V369.023H910.324V363.867H908.324ZM908.324 369.023V374.18H910.324V369.023H908.324ZM909.324 373.18H857.996V375.18H909.324V373.18ZM856.996 374.18V400.488H858.996V374.18H856.996ZM857.996 401.488H904.871V399.488H857.996V401.488ZM903.871 400.488V405.645H905.871V400.488H903.871ZM903.871 405.645V410.801H905.871V405.645H903.871ZM904.871 409.801H857.996V411.801H904.871V409.801ZM856.996 410.801V439.688H858.996V410.801H856.996ZM857.996 440.688H909.969V438.688H857.996V440.688ZM908.969 439.688V444.844H910.969V439.688H908.969ZM908.969 444.844V450H910.969V444.844H908.969ZM909.969 449H846.336V451H909.969V449ZM977.703 388.828L976.707 388.921L976.792 389.828H977.703V388.828ZM971.258 376.289L970.637 377.073L970.646 377.08L971.258 376.289ZM953.094 399.082L953.326 398.109L953.322 398.108L953.094 399.082ZM968.094 402.656L967.862 403.629L967.862 403.629L968.094 402.656ZM985.32 411.152L984.583 411.828L984.587 411.832L985.32 411.152ZM981.57 445.488L980.96 444.696L980.958 444.698L981.57 445.488ZM931.18 444.434L930.536 445.199L930.539 445.202L931.18 444.434ZM921.922 422.461V421.461H920.922V422.461H921.922ZM932.645 422.461L933.644 422.43L933.614 421.461H932.645V422.461ZM973.836 438.34L974.389 439.173L973.836 438.34ZM975.711 418.301L976.34 417.524L976.339 417.522L975.711 418.301ZM961.062 412.734L961.295 411.762L961.294 411.762L961.062 412.734ZM946.062 409.16L946.294 408.187L946.293 408.187L946.062 409.16ZM933.348 368.789L934 369.547L934 369.547L933.348 368.789ZM988.426 388.828V389.828H989.473L989.425 388.782L988.426 388.828ZM978.699 388.735C978.169 383.072 975.909 378.621 971.87 375.498L970.646 377.08C974.185 379.816 976.221 383.725 976.707 388.921L978.699 388.735ZM971.879 375.505C967.901 372.356 962.6 370.836 956.082 370.836V372.836C962.299 372.836 967.115 374.284 970.637 377.073L971.879 375.505ZM956.082 370.836C949.415 370.836 944.185 372.122 940.542 374.843L941.739 376.446C944.893 374.089 949.625 372.836 956.082 372.836V370.836ZM940.542 374.843C936.85 377.602 935.043 381.633 935.043 386.777H937.043C937.043 382.156 938.634 378.766 941.739 376.446L940.542 374.843ZM935.043 386.777C935.043 390.35 936.279 393.163 938.855 395.029L940.028 393.409C938.073 391.993 937.043 389.845 937.043 386.777H935.043ZM938.855 395.029C941.302 396.801 946.039 398.456 952.866 400.056L953.322 398.108C946.477 396.505 942.112 394.918 940.028 393.409L938.855 395.029ZM952.862 400.055L967.862 403.629L968.326 401.683L953.326 398.109L952.862 400.055ZM967.862 403.629C975.825 405.523 981.341 408.292 984.583 411.828L986.057 410.477C982.424 406.513 976.456 403.617 968.325 401.683L967.862 403.629ZM984.587 411.832C987.801 415.302 989.477 420.281 989.477 426.914H991.477C991.477 419.953 989.714 414.424 986.054 410.473L984.587 411.832ZM989.477 426.914C989.477 434.432 986.64 440.324 980.96 444.696L982.18 446.281C988.376 441.512 991.477 435.021 991.477 426.914H989.477ZM980.958 444.698C975.288 449.091 967.521 451.344 957.547 451.344V453.344C967.808 453.344 976.056 451.026 982.183 446.279L980.958 444.698ZM957.547 451.344C946.445 451.344 937.912 448.742 931.82 443.665L930.539 445.202C937.104 450.672 946.148 453.344 957.547 453.344V451.344ZM931.824 443.669C925.906 438.687 922.922 431.873 922.922 423.105H920.922C920.922 432.385 924.11 439.789 930.536 445.199L931.824 443.669ZM922.922 423.105V422.461H920.922V423.105H922.922ZM921.922 423.461H932.645V421.461H921.922V423.461ZM931.645 422.492C931.848 428.993 934.222 434.113 938.825 437.721L940.058 436.147C935.989 432.957 933.831 428.428 933.644 422.43L931.645 422.492ZM938.825 437.721C943.395 441.303 949.677 443.031 957.547 443.031V441.031C949.948 441.031 944.159 439.361 940.058 436.147L938.825 437.721ZM957.547 443.031C964.783 443.031 970.442 441.79 974.389 439.173L973.283 437.506C969.808 439.811 964.607 441.031 957.547 441.031V443.031ZM974.389 439.173C978.401 436.512 980.402 432.573 980.402 427.5H978.402C978.402 431.958 976.692 435.246 973.283 437.506L974.389 439.173ZM980.402 427.5C980.402 423.158 979.104 419.761 976.34 417.524L975.082 419.078C977.24 420.825 978.402 423.561 978.402 427.5H980.402ZM976.339 417.522C973.722 415.412 968.633 413.518 961.295 411.762L960.83 413.707C968.179 415.466 972.856 417.283 975.083 419.079L976.339 417.522ZM961.294 411.762L946.294 408.187L945.831 410.133L960.831 413.707L961.294 411.762ZM946.293 408.187C938.782 406.406 933.584 403.961 930.535 400.949L929.129 402.372C932.564 405.765 938.187 408.32 945.832 410.133L946.293 408.187ZM930.535 400.949C927.527 397.977 925.969 393.825 925.969 388.359H923.969C923.969 394.222 925.653 398.937 929.129 402.372L930.535 400.949ZM925.969 388.359C925.969 380.37 928.662 374.138 934 369.547L932.696 368.031C926.861 373.049 923.969 379.865 923.969 388.359H925.969ZM934 369.547C939.397 364.9 946.721 362.523 956.082 362.523V360.523C946.381 360.523 938.548 362.991 932.695 368.031L934 369.547ZM956.082 362.523C965.603 362.523 973.067 364.901 978.582 369.553L979.871 368.025C973.902 362.989 965.936 360.523 956.082 360.523V362.523ZM978.582 369.553C984.081 374.192 987.047 380.595 987.427 388.874L989.425 388.782C989.023 380.03 985.856 373.073 979.871 368.025L978.582 369.553ZM988.426 387.828H977.703V389.828H988.426V387.828ZM1007 450H1006V451H1007V450ZM1007 363.867V362.867H1006V363.867H1007ZM1018.66 363.867H1019.66V362.867H1018.66V363.867ZM1018.66 450V451H1019.66V450H1018.66ZM1008 450V363.867H1006V450H1008ZM1007 364.867H1012.8V362.867H1007V364.867ZM1012.8 364.867H1018.66V362.867H1012.8V364.867ZM1017.66 363.867V450H1019.66V363.867H1017.66ZM1018.66 449H1012.86V451H1018.66V449ZM1012.86 449H1007V451H1012.86V449ZM1046.32 439.863L1045.57 440.525L1045.57 440.527L1046.32 439.863ZM1100.4 369.434L1099.78 370.222L1099.79 370.224L1100.4 369.434ZM1112.35 389.707V390.707H1113.5L1113.34 389.566L1112.35 389.707ZM1101.1 389.707L1100.12 389.895L1100.28 390.707H1101.1V389.707ZM1092.78 376.523L1092.21 377.342L1092.21 377.345L1092.78 376.523ZM1055.05 381.621L1055.83 382.246L1055.83 382.244L1055.05 381.621ZM1054.75 433.184L1053.98 433.815L1053.98 433.818L1054.75 433.184ZM1097.53 432.656L1096.76 432.01L1096.76 432.012L1097.53 432.656ZM1099.87 429.434L1100.72 429.961L1100.72 429.958L1099.87 429.434ZM1102.21 423.047L1101.24 422.811L1101.24 422.824L1102.21 423.047ZM1103.21 414.199H1104.21V413.199H1103.21V414.199ZM1076.2 414.199H1075.2V415.199H1076.2V414.199ZM1076.2 404.355V403.355H1075.2V404.355H1076.2ZM1113.93 404.355H1114.93V403.355H1113.93V404.355ZM1113.93 449.941V450.941H1114.93V449.941H1113.93ZM1106.67 449.941L1105.7 450.193L1105.89 450.941H1106.67V449.941ZM1103.86 439.102L1104.82 438.85L1104.34 436.982L1103.09 438.456L1103.86 439.102ZM1103.21 439.863L1103.97 440.511L1103.97 440.509L1103.21 439.863ZM1075.32 451.344C1063.63 451.344 1054.24 447.289 1047.06 439.2L1045.57 440.527C1053.16 449.079 1063.11 453.344 1075.32 453.344V451.344ZM1047.07 439.201C1039.88 431.062 1036.24 420.358 1036.24 406.992H1034.24C1034.24 420.736 1037.99 431.946 1045.57 440.525L1047.07 439.201ZM1036.24 406.992C1036.24 393.592 1039.95 382.871 1047.29 374.732L1045.81 373.393C1038.07 381.972 1034.24 393.205 1034.24 406.992H1036.24ZM1047.29 374.732C1054.63 366.602 1064.21 362.523 1076.14 362.523V360.523C1063.7 360.523 1053.55 364.804 1045.81 373.393L1047.29 374.732ZM1076.14 362.523C1085.35 362.523 1093.22 365.099 1099.78 370.222L1101.01 368.645C1094.06 363.221 1085.75 360.523 1076.14 360.523V362.523ZM1099.79 370.224C1106.38 375.344 1110.23 381.872 1111.36 389.848L1113.34 389.566C1112.13 381.057 1108.01 374.07 1101.01 368.643L1099.79 370.224ZM1112.35 388.707H1101.1V390.707H1112.35V388.707ZM1102.08 389.519C1100.94 383.579 1098.04 378.948 1093.35 375.702L1092.21 377.345C1096.43 380.271 1099.07 384.429 1100.12 389.895L1102.08 389.519ZM1093.36 375.705C1088.69 372.43 1082.69 370.836 1075.44 370.836V372.836C1082.4 372.836 1087.97 374.367 1092.21 377.342L1093.36 375.705ZM1075.44 370.836C1066.74 370.836 1059.65 374.234 1054.26 380.998L1055.83 382.244C1060.83 375.961 1067.34 372.836 1075.44 372.836V370.836ZM1054.27 380.996C1048.89 387.701 1046.25 396.456 1046.25 407.168H1048.25C1048.25 396.786 1050.81 388.51 1055.83 382.246L1054.27 380.996ZM1046.25 407.168C1046.25 418.515 1048.78 427.443 1053.98 433.815L1055.53 432.552C1050.72 426.659 1048.25 418.243 1048.25 407.168H1046.25ZM1053.98 433.818C1059.24 440.219 1066.63 443.383 1076.02 443.383V441.383C1067.13 441.383 1060.35 438.414 1055.53 432.549L1053.98 433.818ZM1076.02 443.383C1085.17 443.383 1092.62 440.022 1098.29 433.301L1096.76 432.012C1091.49 438.259 1084.61 441.383 1076.02 441.383V443.383ZM1098.29 433.302C1099.18 432.249 1099.99 431.135 1100.72 429.961L1099.02 428.906C1098.34 429.998 1097.59 431.032 1096.76 432.01L1098.29 433.302ZM1100.72 429.958C1101.74 428.304 1102.55 426.057 1103.19 423.27L1101.24 422.824C1100.63 425.505 1099.88 427.516 1099.02 428.909L1100.72 429.958ZM1103.19 423.283C1103.87 420.482 1104.21 417.805 1104.21 415.254H1102.21C1102.21 417.625 1101.89 420.143 1101.24 422.811L1103.19 423.283ZM1104.21 415.254V414.199H1102.21V415.254H1104.21ZM1103.21 413.199H1076.2V415.199H1103.21V413.199ZM1077.2 414.199V404.355H1075.2V414.199H1077.2ZM1076.2 405.355H1113.93V403.355H1076.2V405.355ZM1112.93 404.355V449.941H1114.93V404.355H1112.93ZM1113.93 448.941H1106.67V450.941H1113.93V448.941ZM1107.64 449.69L1104.82 438.85L1102.89 439.353L1105.7 450.193L1107.64 449.69ZM1103.09 438.456L1102.45 439.217L1103.97 440.509L1104.62 439.747L1103.09 438.456ZM1102.45 439.216C1095.58 447.299 1086.57 451.344 1075.32 451.344V453.344C1087.12 453.344 1096.7 449.068 1103.97 440.511L1102.45 439.216ZM1143.29 450V451H1144.29V450H1143.29ZM1132.04 450H1131.04V451H1132.04V450ZM1132.04 363.867V362.867H1131.04V363.867H1132.04ZM1146.04 363.867L1146.89 363.343L1146.6 362.867H1146.04V363.867ZM1189.17 433.887L1188.32 434.411L1190.17 437.417V433.887H1189.17ZM1189.17 363.867V362.867H1188.17V363.867H1189.17ZM1200.42 363.867H1201.42V362.867H1200.42V363.867ZM1200.42 450V451H1201.42V450H1200.42ZM1187.64 450L1186.8 450.534L1187.09 451H1187.64V450ZM1143.29 379.746L1144.13 379.212L1142.29 376.289V379.746H1143.29ZM1143.29 449H1137.66V451H1143.29V449ZM1137.66 449H1132.04V451H1137.66V449ZM1133.04 450V363.867H1131.04V450H1133.04ZM1132.04 364.867H1139.01V362.867H1132.04V364.867ZM1139.01 364.867H1146.04V362.867H1139.01V364.867ZM1145.19 364.392L1188.32 434.411L1190.02 433.362L1146.89 363.343L1145.19 364.392ZM1190.17 433.887V363.867H1188.17V433.887H1190.17ZM1189.17 364.867H1194.79V362.867H1189.17V364.867ZM1194.79 364.867H1200.42V362.867H1194.79V364.867ZM1199.42 363.867V450H1201.42V363.867H1199.42ZM1200.42 449H1194.03V451H1200.42V449ZM1194.03 449H1187.64V451H1194.03V449ZM1188.49 449.466L1144.13 379.212L1142.44 380.28L1186.8 450.534L1188.49 449.466ZM1142.29 379.746V450H1144.29V379.746H1142.29Z" fill="white"/>
<mask id="path-2-outside-1_8631_8845" maskUnits="userSpaceOnUse" x="0" y="471" width="605" height="226" fill="black">
<rect fill="white" y="471" width="605" height="226"/>
<path d="M29.5 484.5C25.7 481.5 18.1 477.3 12.8 474.7L5.9 483.4C11.3 486.5 18.8 491.1 22.2 494.2L29.5 484.5ZM25.6 510.6C21.6 507.8 14 503.9 8.7 501.4L2 510C7.4 512.8 14.9 517.3 18.5 520.2L25.6 510.6ZM16.7 528C12.7 539.7 7.5 552.4 3.7 560.1L14.5 566.3C18.6 556.5 22.9 545 26.3 534.3L16.7 528ZM55.8 515.4L47.4 517.9V503.3H56.5V492.2H47.4V474.3H36.4V492.2H26.2V503.3H36.4V521.2C31.6 522.5 27.2 523.7 23.6 524.6L28 536.3C30.7 535.5 33.4 534.6 36.4 533.6V552.4C36.4 553.8 35.9 554.1 34.7 554.1C33.3 554.2 29.4 554.2 25.3 554C26.8 557.4 28.3 562.7 28.6 565.9C35.3 565.9 40.1 565.4 43.2 563.4C46.4 561.4 47.4 558.2 47.4 552.4V529.8C50.9 528.6 54.2 527.4 57.6 526.2L55.8 515.4ZM95.7 505.6H70.8V490.7C78.7 488.7 87.1 486.1 93.9 483.1L85.3 473.9C79 477.4 68.9 480.9 59.9 483.1V516.9C59.9 530.3 59.1 547.6 50.3 559.5C52.8 560.6 57.3 564.4 59.1 566.4C69.1 553.3 70.8 532 70.8 516.9V516.6H77.5V567.3H88.4V516.6H95.7V505.6Z"/>
<path d="M133.5 486.1C129.4 483.1 121 478.3 115.5 475.4L108.6 483.8C114.3 487.3 122.4 492.3 126.3 495.5L133.5 486.1ZM127.9 512.2C123.5 509.4 114.8 505.1 109.1 502.5L102.7 511.3C108.7 514.4 117.3 519.1 121.3 522.1L127.9 512.2ZM125 526.6C119.1 538.2 111.5 550.6 106.2 558.1L116.2 566.2C122.2 556.4 128.6 545 133.8 534.7L125 526.6ZM169 549.4V494.2H191.1V482.3H135.7V494.2H156V549.4H130.3V561.3H195.6V549.4H169Z"/>
<path d="M234.9 536.1C231.7 537.2 228.4 538.2 225.1 539.2V519.2H234.1V508.3H225.1V490.7H235.8V479.6H202.8V490.7H213.8V508.3H203.7V519.2H213.8V542.7C209.2 544 205.1 545.1 201.6 546L204.3 558.1C213.9 555 225.9 551.2 236.9 547.3L234.9 536.1ZM250.3 505.9H260.6V514.5H250.3V505.9ZM250.3 488.2H260.6V496.5H250.3V488.2ZM280.5 496.5H270.6V488.2H280.5V496.5ZM280.5 514.5H270.6V505.9H280.5V514.5ZM271.7 553.4V543.9H292.9V533.2H271.7V524.6H291.8V478.1H239.6V524.6H259.6V533.2H238.9V543.9H259.6V553.4H232V564.2H296.3V553.4H271.7Z"/>
<path d="M355.5 548.4V496.7H389.1V484.3H309.2V496.7H341.9V548.4H303.8V560.4H394.7V548.4H355.5Z"/>
<path d="M493.4 513V500.7H454.1C455.1 491.4 455.2 482.2 455.3 474H442.3C442.2 482.2 442.3 491.3 441.3 500.7H404.9V513H439.3C435.4 530.2 425.9 546.8 403 557C406.5 559.5 410 563.8 411.9 567.1C433.1 556.9 443.9 541.3 449.3 524.6C457.1 543.9 468.7 558.5 486.8 567C488.7 563.6 492.6 558.3 495.6 555.8C476.9 548.2 464.8 532.5 458.2 513H493.4Z"/>
<path d="M527.1 500.2H590.9V511.6H602.6V489.7H588C590.8 486.1 593.8 482.2 596.5 478.3L584.1 474.6C582.1 479.1 578.7 485 575.5 489.7H562.5L568.4 487.4C567.1 483.4 563.8 477.3 560.5 473L550 476.9C552.5 480.8 555.1 485.7 556.5 489.7H539.7L543.5 487.9C541.8 484.1 537.8 478.7 534.3 474.8L524.2 479.3C526.6 482.4 529.4 486.3 531.2 489.7H515.9V511.6H527.1V500.2ZM603.7 530.2H564.9V528.3C573.4 524.2 581.5 518.8 587.6 513.2L580 507.3L577.6 507.9H532.5V518.2H564C560.4 520.4 556.5 522.5 552.7 524V530.2H514.6V541.2H552.7V553.7C552.7 555 552.2 555.5 550.1 555.5C548.1 555.6 540.7 555.6 534.3 555.3C536.1 558.4 538.4 563.4 539.2 566.8C547.7 566.8 554 566.7 558.7 564.9C563.4 563.2 564.9 560.2 564.9 554V541.2H603.7V530.2Z"/>
<path d="M55.5 675.4V623.7H89.1V611.3H9.2V623.7H41.9V675.4H3.8V687.4H94.7V675.4H55.5Z"/>
<path d="M129.5 658.8C127 649.3 121.2 633.6 116.5 621.9L105.6 625.1C110.2 637.4 115.4 653.4 117.6 663L129.5 658.8ZM167.9 677.8V659L177 663.6C182.2 654 188.5 639.9 192.9 627.3L182.2 622.2C178.9 633.6 172.9 647.8 167.9 657.3V602.2H155.6V677.8H142.5V602.2H130.2V677.8H104.4V689.7H193.8V677.8H167.9Z"/>
<path d="M257 615.1H270.4V625.8C270.4 635.7 272.4 639.9 282.3 639.9H288.7C290.8 639.9 293.3 639.8 294.9 639.1C294.4 636.4 294.2 632.3 294 629.3C292.6 629.7 290.1 630 288.5 630H283.3C281.9 630 281.7 628.8 281.7 625.9V604.1H245.9V614.9C245.9 621.8 244.4 629 231.8 634.4C234 636 238.3 640.7 239.7 643C253.9 636.4 257 625.2 257 615.3V615.1ZM232.9 617.3C229.6 613 222.2 606.5 216.9 602.1L209.3 609.4C214.6 614.1 221.6 621.1 224.8 625.5L232.9 617.3ZM226.1 669.5V631.6H202.7V643H214.6V673C214.6 677.8 211.8 681.2 209.6 682.8C211.6 685.1 214.7 690 215.6 692.9C217.4 690.5 220.7 687.7 239.2 672C237.7 669.9 235.7 665.4 234.7 662.2L226.1 669.5ZM275.2 655.2C272.2 660.8 268.2 665.6 263.5 669.6C258.4 665.5 254.2 660.6 251.3 655.2H275.2ZM283.1 643.6L281.1 644.1H237.1V655.2H244.3L240.2 656.6C243.8 664 248.5 670.4 254 675.9C247.1 679.7 239.1 682.2 230.4 683.8C232.3 686.3 234.7 691 235.8 694.1C245.9 691.7 255.2 688.3 263.2 683.4C270.5 688.4 279.1 692 289 694.4C290.5 691.1 293.7 686.4 296.3 683.8C287.5 682.1 279.8 679.5 273.1 675.9C280.8 668.7 286.7 659.2 290.3 646.8L283.1 643.6Z"/>
<path d="M335.1 616.6C331.6 612.4 323.8 606.2 318.3 601.9L310.8 609.5C316.4 614.2 323.7 620.9 327.1 625.3L335.1 616.6ZM329.7 670.1V631.6H303V643.4H317.6V673.5C317.6 678 314.4 681.3 312.2 682.8C314.1 685.4 317 690.8 318 693.9C319.9 691.4 323.6 688.5 343.7 674C342.4 671.6 340.6 666.5 339.9 663.1L329.7 670.1ZM395.5 632.2H372.5V601.3H359.7V632.2H335.7V644.6H359.7V694.3H372.5V644.6H395.5V632.2Z"/>
<path d="M423.4 663.8C418.6 670.2 410.6 677 403 681.1C406 682.9 411 686.8 413.4 689C420.6 684 429.5 675.8 435.4 668.2L423.4 663.8ZM476.1 656.3C478.7 659.6 480.8 662.7 482.3 665.2L491.6 659.6C487.7 653.2 479.6 643.8 472 636.9L463 641.6C464.9 643.4 466.8 645.4 468.7 647.5L438.6 649.6C451.5 643.1 464.5 635.1 476.3 625.8L467.7 618.1C463.3 621.9 458.5 625.5 453.6 628.9L433.6 629.9C439.5 625.7 445.3 621 450.4 616C463.3 614.7 475.6 612.9 485.9 610.4L477.5 600.6C460.6 604.6 432.8 607.2 408.4 608.1C409.5 610.8 411 615.5 411.2 618.5C418.6 618.3 426.2 617.9 433.9 617.4C428.7 622.2 423.6 626 421.4 627.3C418.5 629.4 416.2 630.8 413.8 631.1C415 634 416.7 639 417.2 641.3C419.4 640.4 422.7 639.8 438.4 638.8C431.8 642.7 426.4 645.5 423.4 646.9C417.1 650.1 413.3 651.8 409.3 652.3C410.5 655.2 412.2 660.7 412.7 662.8C416.1 661.5 420.4 660.9 443.4 659V680.9C443.4 682.1 442.9 682.4 441.2 682.5C439.5 682.5 433.4 682.5 428.3 682.3C430 685.4 432 690.4 432.6 693.9C440 693.9 445.6 693.8 449.9 692C454.3 690.1 455.5 687.1 455.5 681.3V658L476.1 656.3ZM460.8 669.7C468.6 675.4 478.3 683.7 482.7 689L493.2 682C488.3 676.5 478.2 668.7 470.5 663.3L460.8 669.7Z"/>
</mask>
<path d="M29.5 484.5C25.7 481.5 18.1 477.3 12.8 474.7L5.9 483.4C11.3 486.5 18.8 491.1 22.2 494.2L29.5 484.5ZM25.6 510.6C21.6 507.8 14 503.9 8.7 501.4L2 510C7.4 512.8 14.9 517.3 18.5 520.2L25.6 510.6ZM16.7 528C12.7 539.7 7.5 552.4 3.7 560.1L14.5 566.3C18.6 556.5 22.9 545 26.3 534.3L16.7 528ZM55.8 515.4L47.4 517.9V503.3H56.5V492.2H47.4V474.3H36.4V492.2H26.2V503.3H36.4V521.2C31.6 522.5 27.2 523.7 23.6 524.6L28 536.3C30.7 535.5 33.4 534.6 36.4 533.6V552.4C36.4 553.8 35.9 554.1 34.7 554.1C33.3 554.2 29.4 554.2 25.3 554C26.8 557.4 28.3 562.7 28.6 565.9C35.3 565.9 40.1 565.4 43.2 563.4C46.4 561.4 47.4 558.2 47.4 552.4V529.8C50.9 528.6 54.2 527.4 57.6 526.2L55.8 515.4ZM95.7 505.6H70.8V490.7C78.7 488.7 87.1 486.1 93.9 483.1L85.3 473.9C79 477.4 68.9 480.9 59.9 483.1V516.9C59.9 530.3 59.1 547.6 50.3 559.5C52.8 560.6 57.3 564.4 59.1 566.4C69.1 553.3 70.8 532 70.8 516.9V516.6H77.5V567.3H88.4V516.6H95.7V505.6Z" stroke="white" stroke-width="2" mask="url(#path-2-outside-1_8631_8845)"/>
<path d="M133.5 486.1C129.4 483.1 121 478.3 115.5 475.4L108.6 483.8C114.3 487.3 122.4 492.3 126.3 495.5L133.5 486.1ZM127.9 512.2C123.5 509.4 114.8 505.1 109.1 502.5L102.7 511.3C108.7 514.4 117.3 519.1 121.3 522.1L127.9 512.2ZM125 526.6C119.1 538.2 111.5 550.6 106.2 558.1L116.2 566.2C122.2 556.4 128.6 545 133.8 534.7L125 526.6ZM169 549.4V494.2H191.1V482.3H135.7V494.2H156V549.4H130.3V561.3H195.6V549.4H169Z" stroke="white" stroke-width="2" mask="url(#path-2-outside-1_8631_8845)"/>
<path d="M234.9 536.1C231.7 537.2 228.4 538.2 225.1 539.2V519.2H234.1V508.3H225.1V490.7H235.8V479.6H202.8V490.7H213.8V508.3H203.7V519.2H213.8V542.7C209.2 544 205.1 545.1 201.6 546L204.3 558.1C213.9 555 225.9 551.2 236.9 547.3L234.9 536.1ZM250.3 505.9H260.6V514.5H250.3V505.9ZM250.3 488.2H260.6V496.5H250.3V488.2ZM280.5 496.5H270.6V488.2H280.5V496.5ZM280.5 514.5H270.6V505.9H280.5V514.5ZM271.7 553.4V543.9H292.9V533.2H271.7V524.6H291.8V478.1H239.6V524.6H259.6V533.2H238.9V543.9H259.6V553.4H232V564.2H296.3V553.4H271.7Z" stroke="white" stroke-width="2" mask="url(#path-2-outside-1_8631_8845)"/>
<path d="M355.5 548.4V496.7H389.1V484.3H309.2V496.7H341.9V548.4H303.8V560.4H394.7V548.4H355.5Z" stroke="white" stroke-width="2" mask="url(#path-2-outside-1_8631_8845)"/>
<path d="M493.4 513V500.7H454.1C455.1 491.4 455.2 482.2 455.3 474H442.3C442.2 482.2 442.3 491.3 441.3 500.7H404.9V513H439.3C435.4 530.2 425.9 546.8 403 557C406.5 559.5 410 563.8 411.9 567.1C433.1 556.9 443.9 541.3 449.3 524.6C457.1 543.9 468.7 558.5 486.8 567C488.7 563.6 492.6 558.3 495.6 555.8C476.9 548.2 464.8 532.5 458.2 513H493.4Z" stroke="white" stroke-width="2" mask="url(#path-2-outside-1_8631_8845)"/>
<path d="M527.1 500.2H590.9V511.6H602.6V489.7H588C590.8 486.1 593.8 482.2 596.5 478.3L584.1 474.6C582.1 479.1 578.7 485 575.5 489.7H562.5L568.4 487.4C567.1 483.4 563.8 477.3 560.5 473L550 476.9C552.5 480.8 555.1 485.7 556.5 489.7H539.7L543.5 487.9C541.8 484.1 537.8 478.7 534.3 474.8L524.2 479.3C526.6 482.4 529.4 486.3 531.2 489.7H515.9V511.6H527.1V500.2ZM603.7 530.2H564.9V528.3C573.4 524.2 581.5 518.8 587.6 513.2L580 507.3L577.6 507.9H532.5V518.2H564C560.4 520.4 556.5 522.5 552.7 524V530.2H514.6V541.2H552.7V553.7C552.7 555 552.2 555.5 550.1 555.5C548.1 555.6 540.7 555.6 534.3 555.3C536.1 558.4 538.4 563.4 539.2 566.8C547.7 566.8 554 566.7 558.7 564.9C563.4 563.2 564.9 560.2 564.9 554V541.2H603.7V530.2Z" stroke="white" stroke-width="2" mask="url(#path-2-outside-1_8631_8845)"/>
<path d="M55.5 675.4V623.7H89.1V611.3H9.2V623.7H41.9V675.4H3.8V687.4H94.7V675.4H55.5Z" stroke="white" stroke-width="2" mask="url(#path-2-outside-1_8631_8845)"/>
<path d="M129.5 658.8C127 649.3 121.2 633.6 116.5 621.9L105.6 625.1C110.2 637.4 115.4 653.4 117.6 663L129.5 658.8ZM167.9 677.8V659L177 663.6C182.2 654 188.5 639.9 192.9 627.3L182.2 622.2C178.9 633.6 172.9 647.8 167.9 657.3V602.2H155.6V677.8H142.5V602.2H130.2V677.8H104.4V689.7H193.8V677.8H167.9Z" stroke="white" stroke-width="2" mask="url(#path-2-outside-1_8631_8845)"/>
<path d="M257 615.1H270.4V625.8C270.4 635.7 272.4 639.9 282.3 639.9H288.7C290.8 639.9 293.3 639.8 294.9 639.1C294.4 636.4 294.2 632.3 294 629.3C292.6 629.7 290.1 630 288.5 630H283.3C281.9 630 281.7 628.8 281.7 625.9V604.1H245.9V614.9C245.9 621.8 244.4 629 231.8 634.4C234 636 238.3 640.7 239.7 643C253.9 636.4 257 625.2 257 615.3V615.1ZM232.9 617.3C229.6 613 222.2 606.5 216.9 602.1L209.3 609.4C214.6 614.1 221.6 621.1 224.8 625.5L232.9 617.3ZM226.1 669.5V631.6H202.7V643H214.6V673C214.6 677.8 211.8 681.2 209.6 682.8C211.6 685.1 214.7 690 215.6 692.9C217.4 690.5 220.7 687.7 239.2 672C237.7 669.9 235.7 665.4 234.7 662.2L226.1 669.5ZM275.2 655.2C272.2 660.8 268.2 665.6 263.5 669.6C258.4 665.5 254.2 660.6 251.3 655.2H275.2ZM283.1 643.6L281.1 644.1H237.1V655.2H244.3L240.2 656.6C243.8 664 248.5 670.4 254 675.9C247.1 679.7 239.1 682.2 230.4 683.8C232.3 686.3 234.7 691 235.8 694.1C245.9 691.7 255.2 688.3 263.2 683.4C270.5 688.4 279.1 692 289 694.4C290.5 691.1 293.7 686.4 296.3 683.8C287.5 682.1 279.8 679.5 273.1 675.9C280.8 668.7 286.7 659.2 290.3 646.8L283.1 643.6Z" stroke="white" stroke-width="2" mask="url(#path-2-outside-1_8631_8845)"/>
<path d="M335.1 616.6C331.6 612.4 323.8 606.2 318.3 601.9L310.8 609.5C316.4 614.2 323.7 620.9 327.1 625.3L335.1 616.6ZM329.7 670.1V631.6H303V643.4H317.6V673.5C317.6 678 314.4 681.3 312.2 682.8C314.1 685.4 317 690.8 318 693.9C319.9 691.4 323.6 688.5 343.7 674C342.4 671.6 340.6 666.5 339.9 663.1L329.7 670.1ZM395.5 632.2H372.5V601.3H359.7V632.2H335.7V644.6H359.7V694.3H372.5V644.6H395.5V632.2Z" stroke="white" stroke-width="2" mask="url(#path-2-outside-1_8631_8845)"/>
<path d="M423.4 663.8C418.6 670.2 410.6 677 403 681.1C406 682.9 411 686.8 413.4 689C420.6 684 429.5 675.8 435.4 668.2L423.4 663.8ZM476.1 656.3C478.7 659.6 480.8 662.7 482.3 665.2L491.6 659.6C487.7 653.2 479.6 643.8 472 636.9L463 641.6C464.9 643.4 466.8 645.4 468.7 647.5L438.6 649.6C451.5 643.1 464.5 635.1 476.3 625.8L467.7 618.1C463.3 621.9 458.5 625.5 453.6 628.9L433.6 629.9C439.5 625.7 445.3 621 450.4 616C463.3 614.7 475.6 612.9 485.9 610.4L477.5 600.6C460.6 604.6 432.8 607.2 408.4 608.1C409.5 610.8 411 615.5 411.2 618.5C418.6 618.3 426.2 617.9 433.9 617.4C428.7 622.2 423.6 626 421.4 627.3C418.5 629.4 416.2 630.8 413.8 631.1C415 634 416.7 639 417.2 641.3C419.4 640.4 422.7 639.8 438.4 638.8C431.8 642.7 426.4 645.5 423.4 646.9C417.1 650.1 413.3 651.8 409.3 652.3C410.5 655.2 412.2 660.7 412.7 662.8C416.1 661.5 420.4 660.9 443.4 659V680.9C443.4 682.1 442.9 682.4 441.2 682.5C439.5 682.5 433.4 682.5 428.3 682.3C430 685.4 432 690.4 432.6 693.9C440 693.9 445.6 693.8 449.9 692C454.3 690.1 455.5 687.1 455.5 681.3V658L476.1 656.3ZM460.8 669.7C468.6 675.4 478.3 683.7 482.7 689L493.2 682C488.3 676.5 478.2 668.7 470.5 663.3L460.8 669.7Z" stroke="white" stroke-width="2" mask="url(#path-2-outside-1_8631_8845)"/>
</svg>
