<svg width="181" height="47" viewBox="0 0 181 47" fill="none" xmlns="http://www.w3.org/2000/svg">
<path d="M35.8993 33.8338L35.8954 35.1264L37.2761 35.2751L37.28 33.9825L35.8993 33.8338Z" fill="black"/>
<path d="M12.8992 0V3.31357L14.2248 3.45465V1.43753L41.8863 4.41555V34.4779L39.8683 34.2606V35.5532L43.2119 35.9154V3.264L12.8992 0Z" fill="black"/>
<path d="M14.2248 31.4998V9.90635L12.8992 9.76145V32.6514L33.307 34.8515L33.3109 33.5589L14.2248 31.4998Z" fill="black"/>
<path d="M33.307 37.4867L10.2518 35.0006V9.4758L8.92615 9.33472V36.1521L33.303 38.7793L33.307 37.4867Z" fill="black"/>
<path d="M8.92615 3.50025V6.81382L10.2518 6.95872V4.93778L37.9133 7.9158V37.9782L35.8953 37.7608V39.0573L39.2389 39.4157V6.76806L8.92615 3.50025Z" fill="black"/>
<path d="M4.95264 7.00484V39.6525L35.2654 42.9203V10.2688L4.95264 7.00484ZM33.9398 41.4827L6.27828 38.5047V8.43856L33.9398 11.4204V41.4827Z" fill="black"/>
<path d="M0.980225 10.5051V43.1527L31.293 46.4167V13.7691L0.980225 10.5051Z" fill="black"/>
<path d="M59.6905 2.74948C60.0196 3.06624 60.2751 3.44747 60.44 3.86767C60.6048 4.28787 60.6752 4.73735 60.6464 5.18604C60.6464 6.83583 60.2084 8.12592 59.3325 9.05631C58.4566 9.98671 57.2005 10.4506 55.5641 10.4481C54.5492 10.4481 53.4216 10.41 52.1812 10.3337L52.6217 7.88189L53.2354 1.95635L57.0195 1.90678C57.9885 1.84472 58.9449 2.14648 59.6905 2.74948ZM57.3972 7.83232C57.6804 7.36204 57.822 6.60578 57.822 5.56354C57.8588 5.12138 57.7647 4.67822 57.5506 4.28615C57.4477 4.15503 57.3121 4.0513 57.1567 3.98463C57.0013 3.91795 56.8309 3.89051 56.6616 3.90485C56.3213 3.90471 55.9813 3.92126 55.6428 3.95442L55.0842 7.61116L55.0173 8.42716C55.4017 8.48331 55.7892 8.51769 56.1778 8.53012C56.4278 8.53476 56.6742 8.47197 56.8895 8.34875C57.1048 8.22553 57.2806 8.04674 57.3972 7.83232Z" fill="black"/>
<path d="M65.0208 3.92761L64.8438 5.12111H66.1537L67.5541 5.08298L67.676 5.26219L67.2827 7.16874L65.7603 7.11916H64.5566L64.478 7.61105L64.4111 8.35079H65.6935L67.9278 8.27071L68.0458 8.45374L67.6524 10.3336H61.5435L61.984 7.88178L62.6134 1.95625H68.805L68.923 2.13928L68.5139 4.00769L66.4015 3.92761H65.0208Z" fill="black"/>
<path d="M76.5061 2.54318C76.7587 2.7494 76.9583 3.00968 77.0894 3.30348C77.2205 3.59728 77.2793 3.91657 77.2614 4.23619C77.274 4.91621 77.093 5.58645 76.7382 6.17323C76.3881 6.74173 75.8758 7.19993 75.2631 7.49256C74.58 7.81961 73.8259 7.98306 73.0642 7.9692H72.2774L72.065 10.3409H69.3901L69.8307 7.87768L70.4483 1.95215H74.4056C75.1555 1.90503 75.8988 2.11415 76.5061 2.54318ZM74.2207 5.56314C74.3674 5.28517 74.4378 4.97526 74.4252 4.66325C74.4354 4.5387 74.4182 4.41348 74.3748 4.29584C74.3314 4.17819 74.2628 4.07079 74.1735 3.9807C73.948 3.81317 73.6708 3.72447 73.3867 3.72904L72.9068 3.76717L72.5449 6.10078L73.5362 6.15417C73.82 6.02398 74.058 5.8158 74.2207 5.55551V5.56314Z" fill="black"/>
<path d="M84.9554 10.3334H82.253L82.1979 8.94549V8.8921L80.8762 8.86541L79.7669 8.9188L79.3499 10.3334H76.7419L80.4356 1.94466H83.6573L84.9554 10.3334ZM82.0248 7.01226L81.7849 4.25159H81.6236L80.5143 7.01226H81.2775H82.0248Z" fill="black"/>
<path d="M93.83 5.815C93.5084 6.33621 93.0617 6.77443 92.5279 7.09238C93.0708 8.08379 93.5874 8.96079 94.0778 9.72341L94.0109 10.0094C93.1147 10.269 92.1909 10.4289 91.2574 10.486L91.0292 10.2801L90.8443 9.7501C90.6555 9.22009 90.451 8.5833 90.1874 7.84356H89.2787L89.0506 10.3449H86.3796L86.8438 7.88169L87.4575 1.95616H91.4187C92.1686 1.91462 92.9108 2.12172 93.5232 2.54338C93.78 2.73921 93.9853 2.99133 94.122 3.27902C94.2588 3.56671 94.3232 3.88175 94.3099 4.19826C94.3022 4.7691 94.1364 5.32746 93.83 5.815ZM91.1826 3.95422C90.9526 3.79755 90.677 3.71607 90.3959 3.72162L89.9003 3.75975L89.5659 5.93702L90.5414 5.97515C90.8251 5.87516 91.0669 5.6876 91.2298 5.44132C91.3783 5.18034 91.4504 4.88499 91.4383 4.58719C91.4451 4.47006 91.4258 4.3529 91.3817 4.24367C91.3376 4.13444 91.2697 4.03571 91.1826 3.95422Z" fill="black"/>
<path d="M102.221 2.1277L101.828 4.00754L100.073 3.92747H99.9004L99.3654 7.61091L99.1254 10.3334H96.4663L96.9186 7.8702L97.3474 3.92747H97.1743L95.3806 4.00754L95.2468 3.82451L95.6402 1.94466H102.084L102.221 2.1277Z" fill="black"/>
<path d="M111.862 10.3335H109.502L109.77 7.79017L109.892 5.65103H109.73L107.819 9.54037H105.812L105.144 5.65103H104.982L104.542 7.55757L104.074 10.3449H101.839L103.739 1.95615H106.827L106.933 3.14964L107.327 6.20011H107.488L108.704 3.23353L109.187 1.94852H112.22L111.862 10.3335Z" fill="black"/>
<path d="M116.917 3.92761L116.744 5.12111H118.054L119.458 5.08298L119.58 5.26219L119.187 7.16874L117.649 7.1306H116.445L116.363 7.62249L116.296 8.36223H117.582L119.812 8.28215L119.934 8.46518L119.541 10.345H113.44L113.881 7.88178L114.51 1.95625H120.701L120.823 2.13928L120.406 4.01912L118.294 3.93905L116.917 3.92761Z" fill="black"/>
<path d="M129.753 7.59551L129.509 10.3333H126.61L124.738 5.82243H124.576L124.376 7.29809L124.096 10.3486H121.673L122.118 7.88531L122.731 1.95977H125.635L127.519 6.4554H127.68L128.16 2.03604L130.622 1.89494L129.753 7.59551Z" fill="black"/>
<path d="M138.533 2.1277L138.139 4.00754L136.389 3.92747H136.216L135.681 7.61091L135.441 10.3334H132.778L133.234 7.8702L133.663 3.92747H133.49L131.696 4.00754L131.562 3.82451L131.956 1.94466H138.399L138.533 2.1277Z" fill="black"/>
<path d="M153.72 2.70363C154.357 3.31372 154.676 4.2403 154.676 5.48336C154.693 6.37448 154.503 7.25792 154.121 8.06863C153.772 8.80332 153.207 9.42156 152.497 9.84553C151.72 10.2891 150.829 10.5112 149.928 10.4861C149.435 10.5162 148.94 10.4497 148.474 10.2905C148.007 10.1313 147.579 9.88273 147.214 9.55955C146.571 8.94183 146.251 8.00636 146.254 6.75312C146.232 5.86805 146.416 4.98952 146.793 4.1831C147.145 3.45429 147.712 2.8427 148.421 2.42527C149.203 1.98544 150.095 1.76495 150.998 1.78848C151.492 1.75602 151.987 1.82032 152.455 1.97755C152.923 2.13478 153.353 2.38172 153.72 2.70363ZM149.814 4.06871C149.532 4.29262 149.336 4.60126 149.255 4.94571C149.094 5.5439 149.023 6.16185 149.047 6.77981C149.039 7.14986 149.074 7.51962 149.153 7.88179C149.192 8.09707 149.312 8.29039 149.491 8.42326C149.711 8.55169 149.967 8.61157 150.223 8.59484C150.534 8.60345 150.841 8.52251 151.104 8.36225C151.389 8.1395 151.588 7.83072 151.671 7.48523C151.832 6.88705 151.903 6.2691 151.879 5.65114C151.889 5.29296 151.857 4.93487 151.785 4.58348C151.747 4.36458 151.627 4.16724 151.446 4.03058C151.225 3.90527 150.97 3.84684 150.715 3.8628C150.4 3.84065 150.085 3.91251 149.814 4.06871Z" fill="black"/>
<path d="M158.767 3.92756L158.543 5.45279H159.436L161.009 5.41466L161.131 5.59769L160.738 7.47372L159.039 7.43559H158.252L158.228 7.61862L157.984 10.3412H155.313L155.754 7.87791L156.383 1.95238H162.134L162.252 2.13541L161.859 4.01525L159.747 3.93518L158.767 3.92756Z" fill="black"/>
<path d="M55.083 20.465L54.8391 23.1875H52.1642L52.6205 20.7243L53.2341 14.8026H55.9523L55.083 20.465Z" fill="black"/>
<path d="M64.5795 20.4649L64.3395 23.1989H61.4365L59.568 18.688H59.4067L59.2061 20.1636L58.9229 23.2141H56.5037L56.9442 20.7509L57.5618 14.8291H60.4609L62.3491 19.34H62.5064L63.006 14.8978L65.4645 14.7567L64.5795 20.4649Z" fill="black"/>
<path d="M73.4227 15.611C73.7523 15.9282 74.0081 16.31 74.173 16.7309C74.3378 17.1518 74.4079 17.6021 74.3785 18.0514C74.3785 19.6986 73.9419 20.9913 73.0686 21.9178C72.1954 22.8444 70.9366 23.3134 69.3002 23.3134C68.2814 23.3134 67.1524 23.2715 65.9172 23.1952L66.3578 20.732L66.9715 14.8103L70.7556 14.7569C71.7247 14.7002 72.6792 15.0059 73.4227 15.611ZM71.1293 20.6938C71.4165 20.2286 71.5581 19.4698 71.5581 18.406C71.5962 17.9633 71.5005 17.5195 71.2828 17.1286C71.1801 16.9972 71.0446 16.8933 70.8891 16.8266C70.7336 16.7599 70.5631 16.7326 70.3937 16.7473C70.0547 16.7465 69.7158 16.7643 69.3789 16.8007L68.8163 20.4651L68.7495 21.2811C69.1404 21.3386 69.5344 21.3742 69.9296 21.3878C70.176 21.3902 70.4184 21.3266 70.63 21.2042C70.8417 21.0818 71.0144 20.9052 71.1293 20.6938Z" fill="black"/>
<path d="M83.0009 19.0614L82.8279 20.396C82.792 20.8222 82.6667 21.2369 82.4597 21.6145C82.2527 21.9922 81.9684 22.3249 81.6241 22.5923C80.8007 23.1407 79.813 23.4089 78.8155 23.355C77.9428 23.4035 77.0763 23.1862 76.3373 22.7334C76.0474 22.5332 75.8141 22.2655 75.6587 21.955C75.5034 21.6446 75.431 21.3012 75.4483 20.9565C75.448 20.7703 75.4611 20.5843 75.4876 20.3998L75.6883 19.0652L76.1406 14.8137H78.8155L78.0288 20.049C78.0288 20.2206 78.0012 20.3388 78.0012 20.3998C77.9896 20.5262 78.0052 20.6535 78.0472 20.7737C78.0892 20.8938 78.1566 21.0042 78.2451 21.0976C78.4685 21.2663 78.7501 21.3454 79.0319 21.3188C79.3759 21.3441 79.7164 21.2373 79.9799 21.0214C80.2277 20.7538 80.3674 20.4085 80.3732 20.049L80.9082 14.8137H83.6224L83.0009 19.0614Z" fill="black"/>
<path d="M91.0924 15.1264L90.4237 17.2236L90.05 17.3799C89.7211 17.1662 89.3688 16.9885 88.9997 16.8499C88.7262 16.7375 88.4348 16.6717 88.1382 16.6554C87.9506 16.6454 87.7647 16.6935 87.6072 16.7927C87.5484 16.8264 87.4998 16.8744 87.466 16.9319C87.4322 16.9894 87.4144 17.0545 87.4144 17.1206C87.4174 17.2067 87.4428 17.2906 87.4881 17.3646C87.5335 17.4386 87.5975 17.5002 87.674 17.5439C87.9421 17.7083 88.2221 17.8536 88.5119 17.9786C88.886 18.1448 89.2498 18.332 89.6015 18.5391C89.8983 18.7274 90.1548 18.9695 90.3568 19.2521C90.5753 19.5728 90.6866 19.9509 90.6754 20.3351C90.6784 20.8817 90.5036 21.4154 90.1758 21.8603C89.8177 22.3444 89.3329 22.7274 88.7715 22.9699C88.1262 23.2501 87.4252 23.3893 86.7181 23.3779C85.756 23.3701 84.8023 23.2037 83.8977 22.886L84.5389 20.6439L84.8182 20.4876C85.1917 20.7915 85.6126 21.036 86.0652 21.2121C86.4281 21.3668 86.8176 21.4547 87.2138 21.4714C87.4118 21.4876 87.6098 21.4392 87.7763 21.3341C87.8297 21.2964 87.8731 21.2471 87.9032 21.1901C87.9333 21.1332 87.9491 21.0701 87.9494 21.0062C87.9464 20.9147 87.9196 20.8255 87.8715 20.7468C87.8233 20.6681 87.7554 20.6026 87.674 20.5562C87.4032 20.3863 87.1191 20.2371 86.8243 20.1101C86.4561 19.9463 86.0987 19.7604 85.7544 19.5534C85.4649 19.3617 85.2197 19.1136 85.0345 18.8251C84.8221 18.5051 84.7151 18.1301 84.7277 17.7498C84.7254 17.1891 84.9027 16.6414 85.2352 16.1826C85.5879 15.6938 86.0704 15.3064 86.6316 15.0616C87.2542 14.784 87.9329 14.6446 88.6181 14.6536C89.4664 14.6571 90.3062 14.8175 91.0924 15.1264Z" fill="black"/>
<path d="M98.8775 14.9894L98.5038 16.8693L96.7494 16.793H96.5763L96.0492 20.465L95.8093 23.1875H93.1501L93.6025 20.7243L94.0312 16.7854H93.8582L92.0644 16.8616L91.9307 16.6824L92.324 14.8026H98.7674L98.8775 14.9894Z" fill="black"/>
<path d="M106.67 18.6765C106.347 19.1978 105.899 19.636 105.364 19.9539C105.911 20.9491 106.426 21.8261 106.918 22.5849L106.851 22.8709C105.954 23.1295 105.031 23.2907 104.098 23.3514L103.869 23.1416L103.684 22.6116C103.496 22.0854 103.277 21.4499 103.028 20.7051H102.119L101.891 23.2065H99.2158L99.6721 20.7432L100.286 14.8215H104.243C104.995 14.7811 105.738 14.9895 106.351 15.4125C106.605 15.6093 106.807 15.8616 106.94 16.1486C107.073 16.4356 107.134 16.7492 107.119 17.0636C107.12 17.6304 106.966 18.1874 106.67 18.6765ZM104.023 16.8195C103.794 16.6603 103.518 16.5773 103.236 16.5831L102.74 16.6251L102.406 18.8024L103.382 18.8519C103.665 18.7532 103.907 18.5669 104.07 18.3219C104.218 18.0606 104.29 17.7655 104.278 17.4678C104.289 17.3484 104.272 17.2282 104.228 17.116C104.185 17.0039 104.116 16.9026 104.027 16.8195H104.023Z" fill="black"/>
<path d="M111.095 20.4648L110.855 23.1874H108.18L108.636 20.7318L109.25 14.81H111.964L111.095 20.4648Z" fill="black"/>
<path d="M120.134 23.195H117.432L117.381 21.807V21.7574L116.055 21.7307L114.946 21.7803L114.553 23.195H111.945L115.634 14.8062H118.856L120.134 23.195ZM117.208 19.8776L116.964 17.1169H116.807L115.693 19.8776H116.456H117.208Z" fill="black"/>
<path d="M126.653 21.2618L126.259 23.195H121.118L121.558 20.7318L122.176 14.81H124.89L124.033 20.4648L123.982 21.0749H126.535L126.653 21.2618Z" fill="black"/>
<path d="M141.066 15.6107C141.395 15.9279 141.651 16.3097 141.816 16.7306C141.981 17.1515 142.051 17.6017 142.022 18.0511C142.022 19.6983 141.585 20.9909 140.712 21.9175C139.838 22.8441 138.58 23.3131 136.939 23.3131C135.924 23.3131 134.795 23.2712 133.556 23.1949L133.997 20.7317L134.599 14.8099L138.383 14.7565C139.357 14.6959 140.318 15.0018 141.066 15.6107ZM138.772 20.6935C139.056 20.2283 139.201 19.4695 139.201 18.4057C139.237 17.9632 139.141 17.52 138.926 17.1283C138.823 16.9969 138.688 16.893 138.532 16.8263C138.377 16.7596 138.206 16.7323 138.037 16.747C137.698 16.7462 137.359 16.764 137.022 16.8004L136.459 20.4647L136.393 21.2807C136.783 21.3384 137.178 21.3741 137.573 21.3875C137.819 21.389 138.061 21.3251 138.272 21.2028C138.484 21.0804 138.657 20.9043 138.772 20.6935Z" fill="black"/>
<path d="M146.132 16.7926L145.959 17.9822H147.269L148.674 17.9441L148.795 18.1271L148.402 20.0337L146.864 19.9955H145.652L145.57 20.4874L145.503 21.2272H146.793L149.024 21.1471L149.146 21.3301L148.752 23.21H142.655L143.1 20.7467L143.725 14.825H149.917L150.039 15.0042L149.622 16.8841L147.509 16.8078L146.132 16.7926Z" fill="black"/>
<path d="M157.414 15.1265L156.745 17.2237L156.371 17.38C156.043 17.1649 155.691 16.987 155.321 16.85C155.048 16.7369 154.756 16.6711 154.459 16.6555C154.273 16.6455 154.088 16.6936 153.932 16.7928C153.873 16.8261 153.823 16.8739 153.789 16.9314C153.754 16.9889 153.736 17.0542 153.736 17.1207C153.739 17.2071 153.766 17.2911 153.812 17.365C153.858 17.439 153.922 17.5005 153.999 17.544C154.266 17.7077 154.545 17.853 154.833 17.9787C155.208 18.1441 155.572 18.3313 155.923 18.5392C156.222 18.7251 156.478 18.9676 156.678 19.2523C156.9 19.5717 157.012 19.9504 157.001 20.3352C157.002 20.8822 156.826 21.4159 156.497 21.8604C156.139 22.3446 155.654 22.7275 155.093 22.97C154.449 23.2506 153.749 23.3899 153.043 23.378C152.08 23.3705 151.125 23.2042 150.219 22.8861L150.864 20.644L151.12 20.4648C151.492 20.7687 151.911 21.0132 152.363 21.1893C152.726 21.3436 153.115 21.4315 153.511 21.4486C153.71 21.4654 153.908 21.417 154.074 21.3113C154.129 21.2753 154.174 21.2263 154.204 21.169C154.234 21.1116 154.249 21.0478 154.247 20.9834C154.244 20.8924 154.218 20.8035 154.17 20.7249C154.123 20.6464 154.056 20.5805 153.976 20.5334C153.704 20.3652 153.42 20.2161 153.126 20.0873C152.757 19.9244 152.4 19.7384 152.056 19.5306C151.768 19.3468 151.522 19.1081 151.332 18.829C151.12 18.509 151.013 18.134 151.025 17.7537C151.023 17.193 151.2 16.6454 151.533 16.1865C151.888 15.6983 152.371 15.3112 152.933 15.0655C153.55 14.7902 154.221 14.6509 154.9 14.6575C155.761 14.6541 156.615 14.8134 157.414 15.1265Z" fill="black"/>
<path d="M160.954 20.465L160.714 23.1875H158.039L158.491 20.7243L159.109 14.8026H161.823L160.954 20.465Z" fill="black"/>
<path d="M169.608 14.7682C170.01 14.8225 170.406 14.9184 170.788 15.0542L169.934 17.342H169.722C169.371 17.1543 169.004 16.9974 168.624 16.873C168.286 16.775 167.935 16.7274 167.582 16.7319C167.209 16.7167 166.84 16.7997 166.512 16.9721C166.189 17.1897 165.958 17.5135 165.863 17.8835C165.681 18.516 165.601 19.172 165.627 19.8281C165.58 20.2668 165.699 20.7071 165.961 21.0674C166.117 21.1959 166.298 21.2925 166.493 21.3515C166.689 21.4105 166.894 21.4306 167.098 21.4106C167.261 21.4061 167.422 21.3882 167.582 21.3572L167.633 20.9301L167.767 19.4926L170.229 19.3248L170.04 20.4916L169.745 22.7795C168.785 23.1422 167.766 23.3359 166.736 23.3514C165.483 23.3514 164.519 23.0438 163.845 22.4287C163.498 22.0929 163.228 21.6895 163.054 21.2452C162.879 20.8008 162.804 20.3256 162.834 19.851C162.834 18.1834 163.295 16.9022 164.219 16.0074C165.139 15.1152 166.473 14.6652 168.207 14.6652C168.676 14.6658 169.144 14.7002 169.608 14.7682Z" fill="black"/>
<path d="M179.407 20.4649L179.167 23.1989H176.268L174.396 18.688H174.234L174.034 20.1637L173.751 23.2141H171.331L171.772 20.7509L172.389 14.8292H175.289L177.177 19.34H177.334L177.818 14.9169L180.276 14.7758L179.407 20.4649Z" fill="black"/>
<path d="M53.3174 40.0489C52.9168 39.7663 52.4962 39.5114 52.0586 39.2862L52.688 38.4969C53.1349 38.6965 53.5685 38.9232 53.9861 39.1757L53.3174 40.0489ZM54.049 41.0631C53.7933 41.8715 53.4944 42.7066 53.1876 43.4578L52.1727 42.9163C52.5426 42.1304 52.8657 41.3245 53.1403 40.5026L54.049 41.0631ZM53.6084 38.1004C53.2061 37.8047 52.7799 37.5407 52.3339 37.3111L52.9869 36.5141C53.4406 36.7174 53.8772 36.9545 54.2929 37.2234L53.6084 38.1004ZM56.4289 40.5026C56.1968 40.5865 55.9568 40.659 55.7208 40.7428V42.2376C55.7208 42.7371 55.6422 43.0269 55.3747 43.2061C55.0107 43.3862 54.6016 43.4629 54.1946 43.4273C54.1429 43.0591 54.0424 42.699 53.8956 42.3558C54.1867 42.3558 54.4778 42.3558 54.584 42.3558C54.6902 42.3558 54.7138 42.3329 54.7138 42.2299V41.0555L54.1788 41.2271L53.7855 40.1518C54.0569 40.0946 54.3716 40.0107 54.7217 39.923V38.7791H54.0018V37.7648H54.7217V36.4798H55.7444V37.761H56.3187V38.7677H55.7051V39.6599L56.244 39.5112L56.4289 40.5026ZM59.3752 39.8124H58.9071V43.5264H57.8922V39.8124H57.5696C57.5696 40.9564 57.4005 42.5121 56.6885 43.4578C56.4405 43.2158 56.1616 43.0057 55.8585 42.8324C56.5036 41.9478 56.5508 40.6361 56.5508 39.6409V37.1471C57.2254 36.9915 57.8789 36.7599 58.498 36.4569L59.3044 37.2806C58.7431 37.5095 58.1627 37.6919 57.5696 37.8258V38.8134H59.3831L59.3752 39.8124Z" fill="black"/>
<path d="M62.0149 40.2127C61.7003 39.9992 61.0158 39.6407 60.5713 39.4081L61.1613 38.6074C61.6651 38.818 62.1575 39.0535 62.6365 39.3128L62.0149 40.2127ZM63.1203 41.1202C62.7269 41.9019 62.251 42.7064 61.7829 43.45L60.8466 42.7217C61.3811 41.9785 61.8659 41.2028 62.2982 40.3995L63.1203 41.1202ZM62.4044 38.2108C62.1133 37.982 61.4682 37.6007 61.0473 37.3414L61.6924 36.5788C62.0857 36.7924 62.7584 37.1432 63.0888 37.3605L62.4044 38.2108ZM67.8092 42.0239V43.1106H62.6601V42.0239H64.6269V38.1346H63.1164V37.0478H67.5063V38.1346H65.8503V42.0239H67.8092Z" fill="black"/>
<path d="M71.7464 42.0737C70.8809 42.3635 69.929 42.6609 69.1619 42.9011L68.9062 41.8182C69.158 41.7572 69.4609 41.6771 69.7874 41.5856V39.9955H69.0675V39.0041H69.7874V37.8602H69.0007V36.8612H71.6598V37.8602H70.8731V39.0041H71.5182V39.9955H70.8731V41.2805L71.5693 41.067L71.7464 42.0737ZM76.2937 42.3253V43.3015H71.349V42.3253H73.3513V41.7915H71.8565V40.823H73.3513V40.3196H71.8762V36.762H75.9868V40.3196H74.5117V40.823H76.0537V41.7915H74.5117V42.3253H76.2937ZM72.8832 38.1309H73.4575V37.6848H72.8832V38.1309ZM72.8832 39.4236H73.4575V38.9698H72.8832V39.4236ZM74.909 37.6848H74.3898V38.1309H74.909V37.6848ZM74.909 38.9698H74.3898V39.4236H74.909V38.9698Z" fill="black"/>
<path d="M84.6414 41.9553V43.0497H77.5608V41.9553H80.4088V38.3291H78.0014V37.1851H84.189V38.3291H81.6911V41.9553H84.6414Z" fill="black"/>
<path d="M90.3371 39.5303C90.5485 40.1945 90.9099 40.8047 91.3951 41.3165C91.8803 41.8284 92.4769 42.229 93.1418 42.4893C92.8167 42.793 92.5373 43.1395 92.3118 43.5188C91.0308 42.9328 90.0319 41.8908 89.5229 40.6094C89.2842 41.2463 88.9181 41.8311 88.4455 42.3304C87.973 42.8297 87.4033 43.2336 86.7693 43.5188C86.5483 43.1634 86.2616 42.8506 85.9236 42.596C86.5947 42.3382 87.1908 41.9256 87.6603 41.394C88.1298 40.8625 88.4586 40.228 88.6181 39.5456H86.077V38.3864H88.803C88.8581 37.7306 88.8502 37.0785 88.8581 36.4608H90.0854C90.0854 37.0785 90.0854 37.7306 90.0067 38.3864H92.957V39.5303H90.3371Z" fill="black"/>
<path d="M101.415 41.6732H98.4959V42.3633C98.4959 42.8934 98.3661 43.1679 97.961 43.3166C97.4591 43.4634 96.9342 43.5215 96.4111 43.4882C96.3098 43.1235 96.159 42.7735 95.9627 42.4472C96.3954 42.4701 97.0012 42.4701 97.1428 42.4472C97.2844 42.4244 97.3434 42.4167 97.3434 42.3176V41.6579H94.4875V40.6742H97.3434V40.2433C97.5511 40.1556 97.7534 40.0563 97.9492 39.9459H95.9076V39.0155H99.2158L99.444 38.9621L100.152 39.5074C99.6474 39.9481 99.0869 40.3248 98.4841 40.6284V40.6742H101.403L101.415 41.6732ZM95.6047 39.3434H94.5584V37.6237H95.6873C95.5469 37.3877 95.3905 37.161 95.2192 36.945L96.1712 36.537C96.4447 36.8217 96.6751 37.1427 96.8556 37.4902L96.5567 37.6237H97.6227C97.4989 37.3214 97.3475 37.0305 97.1703 36.7543L98.1576 36.3959C98.4042 36.7147 98.6041 37.065 98.7516 37.4368L98.2521 37.6237H99.1175C99.3514 37.2744 99.5528 36.9056 99.7193 36.5217L100.899 36.8496C100.707 37.1165 100.506 37.3873 100.317 37.6122H101.352V39.3396H100.254V38.5579H95.6047V39.3434Z" fill="black"/>
<path d="M109.95 41.9553V43.0497H102.87V41.9553H105.718V38.3291H103.306V37.1851H109.494V38.3291H106.996V41.9553H109.95Z" fill="black"/>
<path d="M118.333 42.127V43.2061H111.347V42.127H113.251V40.8611L112.26 41.2042C112.106 40.4416 111.721 39.2024 111.406 38.2491L112.429 37.9517C112.696 38.7143 113.034 39.6409 113.251 40.3692V36.5561H114.399V42.1232H115.261V36.5523H116.413V40.3654C116.775 39.5912 117.068 38.7889 117.291 37.9669L118.306 38.4359C117.978 39.3961 117.584 40.3337 117.125 41.2424L116.406 40.8611V42.1117L118.333 42.127Z" fill="black"/>
<path d="M122.121 40.8379C122.226 41.1528 122.369 41.4547 122.546 41.7378C121.086 43.0114 120.803 43.263 120.657 43.4575C120.526 43.1265 120.341 42.8176 120.111 42.5423C120.232 42.4525 120.33 42.3372 120.398 42.2051C120.466 42.0729 120.502 41.9275 120.504 41.7797V39.7702H119.65V38.7369H121.554V41.326L122.121 40.8379ZM121.334 38.4204C120.966 37.972 120.555 37.5584 120.107 37.185L120.823 36.5291C121.279 36.8745 121.704 37.2572 122.093 37.673L121.334 38.4204ZM126.526 39.8999C126.319 40.7189 125.885 41.4677 125.272 42.0657C125.808 42.312 126.377 42.4828 126.963 42.5729C126.693 42.8601 126.468 43.1838 126.294 43.5337C125.6 43.3859 124.935 43.1283 124.328 42.7711C123.663 43.1271 122.947 43.3842 122.203 43.5337C122.077 43.201 121.906 42.8857 121.696 42.5957C122.31 42.5154 122.909 42.3443 123.47 42.0886C123.1 41.7174 122.787 41.2961 122.542 40.8379L122.994 40.6892H122.333V39.6863H125.657L125.834 39.6482L126.526 39.8999ZM123.977 37.6845C123.981 38.1006 123.855 38.5081 123.616 38.8541C123.378 39.2001 123.038 39.4688 122.64 39.6253C122.431 39.3352 122.186 39.0702 121.912 38.836C122.848 38.4547 122.939 37.9743 122.939 37.4824V36.6855H125.873V38.2641C125.873 38.4776 125.873 38.5767 125.995 38.5767H126.338C126.491 38.5762 126.643 38.5557 126.79 38.5157C126.79 38.7826 126.829 39.1563 126.869 39.4004C126.703 39.4559 126.528 39.4792 126.353 39.469H125.909C125.016 39.469 124.839 39.0877 124.839 38.2488V37.6845H123.977ZM123.584 40.6739C123.797 40.9992 124.062 41.2889 124.371 41.5319C124.663 41.2857 124.912 40.9961 125.11 40.6739H123.584Z" fill="black"/>
<path d="M131.035 40.9639C131.11 41.3113 131.226 41.6492 131.381 41.9706C129.768 43.1145 129.453 43.3623 129.292 43.5606C129.164 43.2005 128.982 42.8602 128.753 42.5502C128.883 42.4714 128.992 42.3634 129.069 42.2352C129.146 42.107 129.191 41.9626 129.198 41.8142V39.8047H128.14V38.7333H130.342V41.4367L131.035 40.9639ZM129.961 38.3863C129.567 37.9586 129.136 37.5656 128.671 37.2118L129.375 36.5102C129.853 36.8363 130.3 37.2025 130.712 37.6046L129.961 38.3863ZM135.342 39.8734H133.666V43.5377H132.463V39.8734H130.665V38.7294H132.455V36.4874H133.659V38.7294H135.334L135.342 39.8734Z" fill="black"/>
<path d="M139.13 41.6426C138.645 42.2237 138.08 42.7369 137.45 43.1678C137.145 42.9033 136.819 42.6624 136.475 42.4471C137.061 42.1485 137.579 41.7372 137.997 41.2384L139.13 41.6426ZM140.743 40.8228V42.4243C140.743 42.9314 140.644 43.2059 140.251 43.3699C139.799 43.516 139.322 43.5744 138.847 43.5415C138.767 43.1721 138.635 42.8153 138.453 42.4815C138.811 42.5043 139.311 42.5043 139.448 42.5043C139.586 42.5043 139.618 42.4738 139.618 42.3938V40.9219C138.044 41.0554 137.686 41.1049 137.407 41.2117C137.324 40.89 137.219 40.5741 137.092 40.2661C137.479 40.1938 137.851 40.057 138.19 39.8619C138.39 39.7742 138.729 39.6102 139.134 39.3814C138.649 39.3807 138.167 39.4397 137.698 39.5568C137.615 39.2485 137.513 38.9454 137.391 38.6493C137.611 38.6034 137.817 38.5095 137.993 38.3748C138.264 38.2123 138.52 38.0287 138.76 37.8257C138.245 37.8486 137.729 37.8676 137.238 37.8753C137.196 37.5504 137.106 37.2332 136.97 36.9334C138.759 36.9105 140.542 36.7279 142.296 36.3882L143.083 37.2804C142.176 37.481 141.256 37.6236 140.33 37.7075C139.986 38.013 139.622 38.2958 139.24 38.554L140.566 38.493C140.912 38.2489 141.258 37.9896 141.573 37.7304L142.359 38.432C141.555 39.0508 140.688 39.5887 139.771 40.0373L141.49 39.9267L141.156 39.5683L141.99 39.145C142.551 39.6636 143.048 40.2432 143.473 40.8723L142.599 41.3871C142.464 41.1569 142.315 40.9353 142.151 40.7236L140.743 40.8228ZM141.923 41.2041C142.539 41.5801 143.11 42.0213 143.626 42.5196L142.627 43.1602C142.14 42.6416 141.595 42.1774 141.002 41.776L141.923 41.2041Z" fill="black"/>
<path d="M52.4999 33.1623L54.6241 30.0051H52.7005V29.2691H55.7412V29.7954L53.621 32.9526H55.7648V33.6923H52.4999V33.1623Z" fill="black"/>
<path d="M56.571 29.2691H57.4994V31.0079H59.2263V29.2691H60.131V33.6923H59.2263V31.7858H57.4994V33.6923H56.5868L56.571 29.2691Z" fill="black"/>
<path d="M61.24 29.2691H64.0368V29.9975H62.1526V31.0194H63.7536V31.7591H62.1526V32.945H64.1194V33.6847H61.2557L61.24 29.2691Z" fill="black"/>
<path d="M64.603 32.9983L65.2324 32.5522C65.2907 32.6823 65.3853 32.794 65.5055 32.8748C65.6257 32.9557 65.7668 33.0024 65.9129 33.0098C66.3063 33.0098 66.5227 32.8039 66.5227 32.1938V29.2691H67.4353V32.2853C67.4353 33.1127 67.0026 33.8105 66.0231 33.8105C65.7307 33.8231 65.4408 33.753 65.1886 33.6088C64.9365 33.4646 64.7331 33.2525 64.603 32.9983Z" fill="black"/>
<path d="M68.5332 29.2691H69.4458V33.6923H68.5332V29.2691Z" fill="black"/>
<path d="M72.7023 32.5561H71.2233L70.9046 33.7H69.9802L71.4396 29.2769H72.5135L73.9807 33.7H73.0249L72.7023 32.5561ZM72.5056 31.8698L72.3719 31.3855C72.2303 30.9279 72.1044 30.417 71.9785 29.9404H71.9549C71.8369 30.4246 71.6992 30.9279 71.5616 31.3855L71.4278 31.8698H72.5056Z" fill="black"/>
<path d="M74.5161 29.2691H75.4484L76.774 31.6256L77.2303 32.5827H77.2618C77.1956 32.0689 77.1562 31.5522 77.1438 31.0346V29.2691H78.0053V33.6923H77.0809L75.7631 31.3282L75.2989 30.3749H75.2674C75.3107 30.8554 75.3815 31.4083 75.3815 31.9192V33.6923H74.5161V29.2691Z" fill="black"/>
<path d="M78.9058 31.4999C78.9058 30.0433 79.8813 29.1853 81.0929 29.1853C81.3558 29.1817 81.6167 29.2302 81.8596 29.3279C82.1024 29.4256 82.3221 29.5704 82.5051 29.7535L82.0173 30.3178C81.9051 30.1962 81.7674 30.0993 81.6134 30.0335C81.4594 29.9678 81.2926 29.9347 81.1243 29.9365C80.3651 29.9365 79.838 30.5085 79.838 31.4618C79.838 32.415 80.2943 32.987 81.1873 32.987C81.3921 32.995 81.594 32.9374 81.7616 32.823V31.9498H80.9513V31.2253H82.5719V33.2234C82.1657 33.5748 81.6373 33.7642 81.0929 33.7534C79.8498 33.7763 78.9058 32.9756 78.9058 31.4999Z" fill="black"/>
<path d="M84.6411 33.1319L85.1643 32.5218C85.4755 32.8158 85.8868 32.9893 86.3208 33.0099C86.7968 33.0099 87.0485 32.8155 87.0485 32.5028C87.0485 32.1901 86.7732 32.0719 86.3641 31.9079L85.7543 31.6563C85.4919 31.5756 85.2619 31.4177 85.0962 31.2045C84.9305 30.9913 84.8375 30.7334 84.8299 30.4666C84.8299 29.7421 85.4829 29.1854 86.4034 29.1854C86.9392 29.1849 87.4536 29.389 87.8352 29.7535L87.3947 30.3103C87.1294 30.0778 86.7846 29.9487 86.427 29.948C86.0336 29.948 85.7701 30.1196 85.7701 30.4132C85.7701 30.7068 86.0966 30.8441 86.4821 30.9928L87.08 31.2368C87.3489 31.3102 87.585 31.4678 87.7516 31.6852C87.9182 31.9025 88.0057 32.1673 88.0005 32.438C88.0005 33.1624 87.3789 33.7764 86.3247 33.7764C85.6988 33.78 85.0956 33.5492 84.6411 33.1319Z" fill="black"/>
<path d="M88.5747 31.4999C88.5747 30.0433 89.5424 29.1854 90.695 29.1854C90.9459 29.1878 91.1937 29.2393 91.4236 29.337C91.6534 29.4346 91.8605 29.5763 92.0324 29.7535L91.5525 30.3179C91.4465 30.2029 91.3177 30.1098 91.1737 30.0443C91.0297 29.9788 90.8736 29.9421 90.7146 29.9366C90.0223 29.9366 89.507 30.5085 89.507 31.4618C89.507 32.4151 89.9751 32.987 90.6871 32.987C90.8672 32.9834 91.0445 32.9427 91.2072 32.8678C91.3699 32.7929 91.5144 32.6854 91.6312 32.5524L92.115 33.1243C91.9386 33.3321 91.7162 33.4987 91.4642 33.6116C91.2122 33.7245 90.9371 33.7808 90.6595 33.7763C89.507 33.7763 88.5747 32.9756 88.5747 31.4999Z" fill="black"/>
<path d="M92.8511 29.2691H93.7637V33.6923H92.8511V29.2691Z" fill="black"/>
<path d="M94.625 31.6676H96.3086V32.2853H94.625V31.6676Z" fill="black"/>
<path d="M97.6972 29.9976H96.4148V29.2617H99.9039V29.9976H98.6058V33.6848H97.6972V29.9976Z" fill="black"/>
<path d="M100.643 29.2691H103.44V29.9975H101.556V31.0194H103.157V31.7591H101.556V32.945H103.523V33.6847H100.659L100.643 29.2691Z" fill="black"/>
<path d="M104.203 31.4999C104.203 30.0433 105.171 29.1854 106.323 29.1854C106.575 29.1881 106.823 29.2398 107.054 29.3374C107.284 29.435 107.492 29.5765 107.665 29.7535L107.181 30.3179C107.075 30.2029 106.946 30.1098 106.802 30.0443C106.658 29.9788 106.502 29.9421 106.343 29.9366C105.655 29.9366 105.135 30.5085 105.135 31.4618C105.135 32.4151 105.604 32.987 106.315 32.987C106.496 32.9839 106.673 32.9434 106.836 32.8685C106.999 32.7935 107.143 32.6857 107.26 32.5524L107.739 33.1014C107.564 33.309 107.342 33.4754 107.091 33.5883C106.839 33.7012 106.565 33.7576 106.288 33.7535C105.143 33.7764 104.203 32.9756 104.203 31.4999Z" fill="black"/>
<path d="M108.482 29.2691H109.395V31.0079H111.122V29.2691H112.027V33.6923H111.122V31.7858H109.395V33.6923H108.482V29.2691Z" fill="black"/>
<path d="M114.537 31.7019V29.2691H115.45V31.782C115.45 32.7009 115.776 33.0098 116.311 33.0098C116.846 33.0098 117.2 32.7009 117.2 31.782V29.2691H118.077V31.7019C118.077 33.1737 117.432 33.7762 116.315 33.7762C115.198 33.7762 114.537 33.1737 114.537 31.7019Z" fill="black"/>
<path d="M119.159 29.2691H120.091L121.417 31.6256L121.873 32.5827H121.905C121.838 32.0689 121.799 31.5522 121.787 31.0346V29.2691H122.648V33.6923H121.724L120.406 31.3282L119.942 30.3749H119.91C119.954 30.8554 120.024 31.4083 120.024 31.9192V33.6923H119.159V29.2691Z" fill="black"/>
<path d="M123.777 29.2691H124.69V33.6923H123.777V29.2691Z" fill="black"/>
<path d="M125.22 29.2691H126.176L126.778 31.4235C126.92 31.9116 127.014 32.3539 127.172 32.8496H127.203C127.345 32.3539 127.451 31.9116 127.596 31.4235L128.186 29.2691H129.091L127.695 33.6923H126.613L125.22 29.2691Z" fill="black"/>
<path d="M129.622 29.2691H132.419V29.9975H130.531V31.0194H132.136V31.7591H130.531V32.945H132.498V33.6847H129.634L129.622 29.2691Z" fill="black"/>
<path d="M135.897 33.6923L134.96 32.0184H134.323V33.6923H133.418V29.2691H134.992C135.948 29.2691 136.703 29.5933 136.703 30.6075C136.721 30.8826 136.646 31.1558 136.489 31.3857C136.332 31.6156 136.102 31.7895 135.834 31.8811L136.9 33.6923H135.897ZM134.323 31.3206H134.917C135.503 31.3206 135.822 31.0804 135.822 30.6075C135.822 30.1347 135.503 29.9708 134.917 29.9708H134.323V31.3206Z" fill="black"/>
<path d="M137.215 33.1319L137.738 32.5218C138.05 32.816 138.463 32.9896 138.898 33.0099C139.374 33.0099 139.626 32.8155 139.626 32.5028C139.626 32.1901 139.347 32.0719 138.941 31.9079L138.332 31.6563C138.069 31.5761 137.839 31.4183 137.673 31.205C137.507 30.9917 137.414 30.7335 137.407 30.4666C137.407 29.7421 138.06 29.1854 138.981 29.1854C139.517 29.1849 140.031 29.389 140.413 29.7535L139.948 30.3103C139.683 30.0784 139.338 29.9495 138.981 29.948C138.587 29.948 138.32 30.1196 138.32 30.4132C138.32 30.7068 138.646 30.8441 139.036 30.9928L139.634 31.2368C139.903 31.3102 140.139 31.4678 140.305 31.6852C140.472 31.9025 140.559 32.1673 140.554 32.438C140.554 33.1624 139.929 33.7764 138.875 33.7764C138.257 33.7734 137.664 33.543 137.215 33.1319Z" fill="black"/>
<path d="M141.365 29.2691H142.277V33.6923H141.365V29.2691Z" fill="black"/>
<path d="M144.303 29.9976H143.021V29.2617H146.51V29.9976H145.219V33.6848H144.307L144.303 29.9976Z" fill="black"/>
<path d="M147.906 32.0718L146.537 29.2691H147.505L147.961 30.3483C148.091 30.6762 148.213 30.985 148.355 31.3282H148.367C148.508 30.985 148.646 30.6762 148.76 30.3483L149.216 29.2691H150.164L148.787 32.0718V33.6923H147.879L147.906 32.0718Z" fill="black"/>
</svg>
