<svg width="1290" height="695" viewBox="0 0 1290 695" fill="none" xmlns="http://www.w3.org/2000/svg">
<path d="M27.5 484.5C23.7 481.5 16.1 477.3 10.8 474.7L3.9 483.4C9.3 486.5 16.8 491.1 20.2 494.2L27.5 484.5ZM23.6 510.6C19.6 507.8 12 503.9 6.7 501.4L0 510C5.4 512.8 12.9 517.3 16.5 520.2L23.6 510.6ZM14.7 528C10.7 539.7 5.5 552.4 1.7 560.1L12.5 566.3C16.6 556.5 20.9 545 24.3 534.3L14.7 528ZM53.8 515.4L45.4 517.9V503.3H54.5V492.2H45.4V474.3H34.4V492.2H24.2V503.3H34.4V521.2C29.6 522.5 25.2 523.7 21.6 524.6L26 536.3C28.7 535.5 31.4 534.6 34.4 533.6V552.4C34.4 553.8 33.9 554.1 32.7 554.1C31.3 554.2 27.4 554.2 23.3 554C24.8 557.4 26.3 562.7 26.6 565.9C33.3 565.9 38.1 565.4 41.2 563.4C44.4 561.4 45.4 558.2 45.4 552.4V529.8C48.9 528.6 52.2 527.4 55.6 526.2L53.8 515.4ZM93.7 505.6H68.8V490.7C76.7 488.7 85.1 486.1 91.9 483.1L83.3 473.9C77 477.4 66.9 480.9 57.9 483.1V516.9C57.9 530.3 57.1 547.6 48.3 559.5C50.8 560.6 55.3 564.4 57.1 566.4C67.1 553.3 68.8 532 68.8 516.9V516.6H75.5V567.3H86.4V516.6H93.7V505.6Z" fill="white"/>
<path d="M131.5 486.1C127.4 483.1 119 478.3 113.5 475.4L106.6 483.8C112.3 487.3 120.4 492.3 124.3 495.5L131.5 486.1ZM125.9 512.2C121.5 509.4 112.8 505.1 107.1 502.5L100.7 511.3C106.7 514.4 115.3 519.1 119.3 522.1L125.9 512.2ZM123 526.6C117.1 538.2 109.5 550.6 104.2 558.1L114.2 566.2C120.2 556.4 126.6 545 131.8 534.7L123 526.6ZM167 549.4V494.2H189.1V482.3H133.7V494.2H154V549.4H128.3V561.3H193.6V549.4H167Z" fill="white"/>
<path d="M232.9 536.1C229.7 537.2 226.4 538.2 223.1 539.2V519.2H232.1V508.3H223.1V490.7H233.8V479.6H200.8V490.7H211.8V508.3H201.7V519.2H211.8V542.7C207.2 544 203.1 545.1 199.6 546L202.3 558.1C211.9 555 223.9 551.2 234.9 547.3L232.9 536.1ZM248.3 505.9H258.6V514.5H248.3V505.9ZM248.3 488.2H258.6V496.5H248.3V488.2ZM278.5 496.5H268.6V488.2H278.5V496.5ZM278.5 514.5H268.6V505.9H278.5V514.5ZM269.7 553.4V543.9H290.9V533.2H269.7V524.6H289.8V478.1H237.6V524.6H257.6V533.2H236.9V543.9H257.6V553.4H230V564.2H294.3V553.4H269.7Z" fill="white"/>
<path d="M353.5 548.4V496.7H387.1V484.3H307.2V496.7H339.9V548.4H301.8V560.4H392.7V548.4H353.5Z" fill="white"/>
<path d="M491.4 513V500.7H452.1C453.1 491.4 453.2 482.2 453.3 474H440.3C440.2 482.2 440.3 491.3 439.3 500.7H402.9V513H437.3C433.4 530.2 423.9 546.8 401 557C404.5 559.5 408 563.8 409.9 567.1C431.1 556.9 441.9 541.3 447.3 524.6C455.1 543.9 466.7 558.5 484.8 567C486.7 563.6 490.6 558.3 493.6 555.8C474.9 548.2 462.8 532.5 456.2 513H491.4Z" fill="white"/>
<path d="M525.1 500.2H588.9V511.6H600.6V489.7H586C588.8 486.1 591.8 482.2 594.5 478.3L582.1 474.6C580.1 479.1 576.7 485 573.5 489.7H560.5L566.4 487.4C565.1 483.4 561.8 477.3 558.5 473L548 476.9C550.5 480.8 553.1 485.7 554.5 489.7H537.7L541.5 487.9C539.8 484.1 535.8 478.7 532.3 474.8L522.2 479.3C524.6 482.4 527.4 486.3 529.2 489.7H513.9V511.6H525.1V500.2ZM601.7 530.2H562.9V528.3C571.4 524.2 579.5 518.8 585.6 513.2L578 507.3L575.6 507.9H530.5V518.2H562C558.4 520.4 554.5 522.5 550.7 524V530.2H512.6V541.2H550.7V553.7C550.7 555 550.2 555.5 548.1 555.5C546.1 555.6 538.7 555.6 532.3 555.3C534.1 558.4 536.4 563.4 537.2 566.8C545.7 566.8 552 566.7 556.7 564.9C561.4 563.2 562.9 560.2 562.9 554V541.2H601.7V530.2Z" fill="white"/>
<path d="M53.5 675.4V623.7H87.1V611.3H7.2V623.7H39.9V675.4H1.8V687.4H92.7V675.4H53.5Z" fill="white"/>
<path d="M127.5 658.8C125 649.3 119.2 633.6 114.5 621.9L103.6 625.1C108.2 637.4 113.4 653.4 115.6 663L127.5 658.8ZM165.9 677.8V659L175 663.6C180.2 654 186.5 639.9 190.9 627.3L180.2 622.2C176.9 633.6 170.9 647.8 165.9 657.3V602.2H153.6V677.8H140.5V602.2H128.2V677.8H102.4V689.7H191.8V677.8H165.9Z" fill="white"/>
<path d="M255 615.1H268.4V625.8C268.4 635.7 270.4 639.9 280.3 639.9H286.7C288.8 639.9 291.3 639.8 292.9 639.1C292.4 636.4 292.2 632.3 292 629.3C290.6 629.7 288.1 630 286.5 630H281.3C279.9 630 279.7 628.8 279.7 625.9V604.1H243.9V614.9C243.9 621.8 242.4 629 229.8 634.4C232 636 236.3 640.7 237.7 643C251.9 636.4 255 625.2 255 615.3V615.1ZM230.9 617.3C227.6 613 220.2 606.5 214.9 602.1L207.3 609.4C212.6 614.1 219.6 621.1 222.8 625.5L230.9 617.3ZM224.1 669.5V631.6H200.7V643H212.6V673C212.6 677.8 209.8 681.2 207.6 682.8C209.6 685.1 212.7 690 213.6 692.9C215.4 690.5 218.7 687.7 237.2 672C235.7 669.9 233.7 665.4 232.7 662.2L224.1 669.5ZM273.2 655.2C270.2 660.8 266.2 665.6 261.5 669.6C256.4 665.5 252.2 660.6 249.3 655.2H273.2ZM281.1 643.6L279.1 644.1H235.1V655.2H242.3L238.2 656.6C241.8 664 246.5 670.4 252 675.9C245.1 679.7 237.1 682.2 228.4 683.8C230.3 686.3 232.7 691 233.8 694.1C243.9 691.7 253.2 688.3 261.2 683.4C268.5 688.4 277.1 692 287 694.4C288.5 691.1 291.7 686.4 294.3 683.8C285.5 682.1 277.8 679.5 271.1 675.9C278.8 668.7 284.7 659.2 288.3 646.8L281.1 643.6Z" fill="white"/>
<path d="M333.1 616.6C329.6 612.4 321.8 606.2 316.3 601.9L308.8 609.5C314.4 614.2 321.7 620.9 325.1 625.3L333.1 616.6ZM327.7 670.1V631.6H301V643.4H315.6V673.5C315.6 678 312.4 681.3 310.2 682.8C312.1 685.4 315 690.8 316 693.9C317.9 691.4 321.6 688.5 341.7 674C340.4 671.6 338.6 666.5 337.9 663.1L327.7 670.1ZM393.5 632.2H370.5V601.3H357.7V632.2H333.7V644.6H357.7V694.3H370.5V644.6H393.5V632.2Z" fill="white"/>
<path d="M421.4 663.8C416.6 670.2 408.6 677 401 681.1C404 682.9 409 686.8 411.4 689C418.6 684 427.5 675.8 433.4 668.2L421.4 663.8ZM474.1 656.3C476.7 659.6 478.8 662.7 480.3 665.2L489.6 659.6C485.7 653.2 477.6 643.8 470 636.9L461 641.6C462.9 643.4 464.8 645.4 466.7 647.5L436.6 649.6C449.5 643.1 462.5 635.1 474.3 625.8L465.7 618.1C461.3 621.9 456.5 625.5 451.6 628.9L431.6 629.9C437.5 625.7 443.3 621 448.4 616C461.3 614.7 473.6 612.9 483.9 610.4L475.5 600.6C458.6 604.6 430.8 607.2 406.4 608.1C407.5 610.8 409 615.5 409.2 618.5C416.6 618.3 424.2 617.9 431.9 617.4C426.7 622.2 421.6 626 419.4 627.3C416.5 629.4 414.2 630.8 411.8 631.1C413 634 414.7 639 415.2 641.3C417.4 640.4 420.7 639.8 436.4 638.8C429.8 642.7 424.4 645.5 421.4 646.9C415.1 650.1 411.3 651.8 407.3 652.3C408.5 655.2 410.2 660.7 410.7 662.8C414.1 661.5 418.4 660.9 441.4 659V680.9C441.4 682.1 440.9 682.4 439.2 682.5C437.5 682.5 431.4 682.5 426.3 682.3C428 685.4 430 690.4 430.6 693.9C438 693.9 443.6 693.8 447.9 692C452.3 690.1 453.5 687.1 453.5 681.3V658L474.1 656.3ZM458.8 669.7C466.6 675.4 476.3 683.7 480.7 689L491.2 682C486.3 676.5 476.2 668.7 468.5 663.3L458.8 669.7Z" fill="white"/>
<path d="M9.72656 132V45.8672H15.5273H45.1172C56.0547 45.8672 64.7461 49.7734 71.1914 57.5859C77.6758 65.3594 80.918 75.8281 80.918 88.9922C80.918 102.117 77.5977 112.566 70.957 120.34C64.3555 128.113 55.4297 132 44.1797 132H15.5273H9.72656ZM21.3867 122.039H42.7148C51.0742 122.039 57.5195 119.168 62.0508 113.426C66.6211 107.684 68.9062 99.5391 68.9062 88.9922C68.9062 78.4062 66.7188 70.2422 62.3438 64.5C57.9688 58.7187 51.7578 55.8281 43.7109 55.8281H21.3867V122.039ZM97.0312 132V45.8672H160.02V51.0234V56.1797H108.691V82.4883H155.566V87.6445V92.8008H108.691V121.688H160.664V126.844V132H97.0312ZM177.07 132V45.8672H182.871H214.746C223.105 45.8672 229.629 47.9766 234.316 52.1953C239.043 56.375 241.406 62.1758 241.406 69.5977C241.406 77.7617 239.043 84.1484 234.316 88.7578C229.629 93.3672 223.105 95.6719 214.746 95.6719C203.77 95.6328 195.098 95.6719 188.73 95.7891V132H182.93H177.07ZM188.73 85.7109H211.875C217.93 85.7109 222.363 84.4414 225.176 81.9023C227.988 79.3242 229.395 75.3008 229.395 69.832C229.395 64.9883 227.988 61.4531 225.176 59.2266C222.363 56.9609 217.93 55.8281 211.875 55.8281H188.73V85.7109ZM248.496 132L281.016 45.8672H287.637H294.316L325.254 132H318.984H312.715L303.984 107.039H269.531L260.508 132H254.531H248.496ZM287.109 58.5234L273.281 96.7266H300.41L287.109 58.5234ZM337.383 132V45.8672H343.184H377.461C386.602 45.8672 393.555 47.8594 398.32 51.8438C403.086 55.7891 405.469 61.5898 405.469 69.2461C405.469 76.7852 402.988 82.6836 398.027 86.9414C396.777 87.9961 395.43 88.9336 393.984 89.7539L395.918 90.6914C401.152 93.6992 403.867 98.7578 404.062 105.867L404.531 121.57C404.609 124.148 404.941 126.004 405.527 127.137C406.113 128.27 407.246 129.246 408.926 130.066V131.941H394.57C394.258 131.238 393.945 129.402 393.633 126.434C393.32 123.465 393.086 120.164 392.93 116.531L392.695 109.734C392.539 104.383 391.23 100.574 388.77 98.3086C386.309 96.0039 382.285 94.8516 376.699 94.8516H349.043V132H343.242H337.383ZM349.043 84.7734H377.871C383.262 84.7734 387.207 83.6016 389.707 81.2578C392.207 78.875 393.457 75.125 393.457 70.0078C393.457 65.0469 392.129 61.4141 389.473 59.1094C386.855 56.8047 382.695 55.6523 376.992 55.6523H349.043V84.7734ZM444.375 132V56.1797H415.254V51.0234V45.8672H485.156V51.0234V56.1797H456.035V132H450.234H444.375ZM507.012 132H501.387H495.703V45.8672H504.082H512.461L537.07 119.168L561.504 45.8672H569.883H578.262V132H572.637H566.953V59.1094L542.637 132H537.012H531.387L507.012 59.3438V132ZM597.188 132V45.8672H660.176V51.0234V56.1797H608.848V82.4883H655.723V87.6445V92.8008H608.848V121.688H660.82V126.844V132H597.188ZM687.305 132H681.68H676.055V45.8672H683.027H690.059L733.184 115.887V45.8672H738.809H744.434V132H738.047H731.66L687.305 61.7461V132ZM784.453 132V56.1797H755.332V51.0234V45.8672H825.234V51.0234V56.1797H796.113V132H790.312H784.453ZM46.6406 293.344C34.1406 293.344 24.0234 289.184 16.2891 280.863C8.55469 272.504 4.6875 261.547 4.6875 247.992C4.6875 234.398 8.55469 223.422 16.2891 215.062C24.0234 206.703 34.1406 202.523 46.6406 202.523C59.2188 202.523 69.3555 206.703 77.0508 215.062C84.7852 223.422 88.6523 234.398 88.6523 247.992C88.6523 261.547 84.7852 272.504 77.0508 280.863C69.3555 289.184 59.2188 293.344 46.6406 293.344ZM46.6406 283.031C55.625 283.031 62.8711 279.809 68.3789 273.363C73.8867 266.918 76.6406 258.461 76.6406 247.992C76.6406 237.484 73.8867 229.008 68.3789 222.562C62.8711 216.078 55.625 212.836 46.6406 212.836C37.6953 212.836 30.4688 216.078 24.9609 222.562C19.4531 229.008 16.6992 237.484 16.6992 247.992C16.6992 258.461 19.4531 266.918 24.9609 273.363C30.4688 279.809 37.6953 283.031 46.6406 283.031ZM103.711 291V204.867H163.359V210.023V215.18H115.371V241.488H157.383V246.645V251.801H115.371V291H109.57H103.711ZM10.8984 450V363.867H16.6992H22.5586V450H16.7578H10.8984ZM53.7891 450H48.1641H42.5391V363.867H49.5117H56.543L99.668 433.887V363.867H105.293H110.918V450H104.531H98.1445L53.7891 379.746V450ZM129.844 450V363.867H135.645H165.234C176.172 363.867 184.863 367.773 191.309 375.586C197.793 383.359 201.035 393.828 201.035 406.992C201.035 420.117 197.715 430.566 191.074 438.34C184.473 446.113 175.547 450 164.297 450H135.645H129.844ZM141.504 440.039H162.832C171.191 440.039 177.637 437.168 182.168 431.426C186.738 425.684 189.023 417.539 189.023 406.992C189.023 396.406 186.836 388.242 182.461 382.5C178.086 376.719 171.875 373.828 163.828 373.828H141.504V440.039ZM284.121 418.418C284.121 429.043 281.133 437.363 275.156 443.379C269.18 449.355 260.879 452.344 250.254 452.344C239.199 452.344 230.781 449.473 225 443.73C219.219 437.949 216.328 429.512 216.328 418.418V363.867H222.129H227.988V417.539C227.988 425.547 229.883 431.641 233.672 435.82C237.461 439.961 242.988 442.031 250.254 442.031C257.52 442.031 263.027 439.961 266.777 435.82C270.566 431.641 272.461 425.547 272.461 417.539V363.867H278.262H284.121V418.418ZM355.195 388.828C354.688 383.398 352.539 379.219 348.75 376.289C345 373.32 339.941 371.836 333.574 371.836C327.012 371.836 322.031 373.105 318.633 375.645C315.234 378.184 313.535 381.895 313.535 386.777C313.535 390.098 314.668 392.578 316.934 394.219C319.199 395.859 323.75 397.48 330.586 399.082L345.586 402.656C353.633 404.57 359.375 407.402 362.812 411.152C366.25 414.863 367.969 420.117 367.969 426.914C367.969 434.727 365 440.918 359.062 445.488C353.164 450.059 345.156 452.344 335.039 452.344C323.789 452.344 315 449.707 308.672 444.434C302.5 439.238 299.414 432.129 299.414 423.105V422.461H310.137C310.332 428.711 312.598 433.535 316.934 436.934C321.27 440.332 327.305 442.031 335.039 442.031C342.188 442.031 347.617 440.801 351.328 438.34C355.039 435.879 356.895 432.266 356.895 427.5C356.895 423.359 355.664 420.293 353.203 418.301C350.781 416.348 345.898 414.492 338.555 412.734L323.555 409.16C315.977 407.363 310.566 404.863 307.324 401.66C304.082 398.457 302.461 394.023 302.461 388.359C302.461 380.117 305.254 373.594 310.84 368.789C316.465 363.945 324.043 361.523 333.574 361.523C343.262 361.523 350.977 363.945 356.719 368.789C362.461 373.633 365.527 380.312 365.918 388.828H355.195ZM404.414 450V374.18H375.293V369.023V363.867H445.195V369.023V374.18H416.074V450H410.273H404.414ZM457.5 450V363.867H463.301H497.578C506.719 363.867 513.672 365.859 518.438 369.844C523.203 373.789 525.586 379.59 525.586 387.246C525.586 394.785 523.105 400.684 518.145 404.941C516.895 405.996 515.547 406.934 514.102 407.754L516.035 408.691C521.27 411.699 523.984 416.758 524.18 423.867L524.648 439.57C524.727 442.148 525.059 444.004 525.645 445.137C526.23 446.27 527.363 447.246 529.043 448.066V449.941H514.688C514.375 449.238 514.062 447.402 513.75 444.434C513.438 441.465 513.203 438.164 513.047 434.531L512.812 427.734C512.656 422.383 511.348 418.574 508.887 416.309C506.426 414.004 502.402 412.852 496.816 412.852H469.16V450H463.359H457.5ZM469.16 402.773H497.988C503.379 402.773 507.324 401.602 509.824 399.258C512.324 396.875 513.574 393.125 513.574 388.008C513.574 383.047 512.246 379.414 509.59 377.109C506.973 374.805 502.812 373.652 497.109 373.652H469.16V402.773ZM544.57 450V363.867H550.371H556.23V450H550.43H544.57ZM568.77 450L601.289 363.867H607.91H614.59L645.527 450H639.258H632.988L624.258 425.039H589.805L580.781 450H574.805H568.77ZM607.383 376.523L593.555 414.727H620.684L607.383 376.523ZM656.25 450V363.867H662.051H667.91V439.688H711.562V444.844V450H656.25ZM757.031 450V363.867H762.832H792.422C803.359 363.867 812.051 367.773 818.496 375.586C824.98 383.359 828.223 393.828 828.223 406.992C828.223 420.117 824.902 430.566 818.262 438.34C811.66 446.113 802.734 450 791.484 450H762.832H757.031ZM768.691 440.039H790.02C798.379 440.039 804.824 437.168 809.355 431.426C813.926 425.684 816.211 417.539 816.211 406.992C816.211 396.406 814.023 388.242 809.648 382.5C805.273 376.719 799.062 373.828 791.016 373.828H768.691V440.039ZM844.336 450V363.867H907.324V369.023V374.18H855.996V400.488H902.871V405.645V410.801H855.996V439.688H907.969V444.844V450H844.336ZM975.703 388.828C975.195 383.398 973.047 379.219 969.258 376.289C965.508 373.32 960.449 371.836 954.082 371.836C947.52 371.836 942.539 373.105 939.141 375.645C935.742 378.184 934.043 381.895 934.043 386.777C934.043 390.098 935.176 392.578 937.441 394.219C939.707 395.859 944.258 397.48 951.094 399.082L966.094 402.656C974.141 404.57 979.883 407.402 983.32 411.152C986.758 414.863 988.477 420.117 988.477 426.914C988.477 434.727 985.508 440.918 979.57 445.488C973.672 450.059 965.664 452.344 955.547 452.344C944.297 452.344 935.508 449.707 929.18 444.434C923.008 439.238 919.922 432.129 919.922 423.105V422.461H930.645C930.84 428.711 933.105 433.535 937.441 436.934C941.777 440.332 947.812 442.031 955.547 442.031C962.695 442.031 968.125 440.801 971.836 438.34C975.547 435.879 977.402 432.266 977.402 427.5C977.402 423.359 976.172 420.293 973.711 418.301C971.289 416.348 966.406 414.492 959.062 412.734L944.062 409.16C936.484 407.363 931.074 404.863 927.832 401.66C924.59 398.457 922.969 394.023 922.969 388.359C922.969 380.117 925.762 373.594 931.348 368.789C936.973 363.945 944.551 361.523 954.082 361.523C963.77 361.523 971.484 363.945 977.227 368.789C982.969 373.633 986.035 380.312 986.426 388.828H975.703ZM1005 450V363.867H1010.8H1016.66V450H1010.86H1005ZM1073.32 452.344C1061.37 452.344 1051.7 448.184 1044.32 439.863C1036.93 431.504 1033.24 420.547 1033.24 406.992C1033.24 393.398 1037.01 382.422 1044.55 374.062C1052.09 365.703 1061.95 361.523 1074.14 361.523C1083.55 361.523 1091.64 364.16 1098.4 369.434C1105.2 374.707 1109.18 381.465 1110.35 389.707H1099.1C1098.01 384.004 1095.23 379.609 1090.78 376.523C1086.33 373.398 1080.55 371.836 1073.44 371.836C1065.04 371.836 1058.24 375.098 1053.05 381.621C1047.85 388.105 1045.25 396.621 1045.25 407.168C1045.25 418.379 1047.75 427.051 1052.75 433.184C1057.79 439.316 1064.88 442.383 1074.02 442.383C1082.89 442.383 1090.06 439.141 1095.53 432.656C1096.39 431.641 1097.17 430.566 1097.87 429.434C1098.81 427.91 1099.59 425.781 1100.21 423.047C1100.88 420.312 1101.21 417.715 1101.21 415.254V414.199H1074.2V404.355H1111.93V449.941H1104.67L1101.86 439.102L1101.21 439.863C1094.14 448.184 1084.84 452.344 1073.32 452.344ZM1141.29 450H1135.66H1130.04V363.867H1137.01H1144.04L1187.17 433.887V363.867H1192.79H1198.42V450H1192.03H1185.64L1141.29 379.746V450Z" fill="white"/>
</svg>
