<svg width="337" height="188" viewBox="0 0 337 188" fill="none" xmlns="http://www.w3.org/2000/svg">
<path d="M7.475 126.8C6.55 126.025 4.7 124.975 3.375 124.3L2 125.95C3.375 126.75 5.175 127.9 6.025 128.675L7.475 126.8ZM6.525 133.25C5.525 132.55 3.65 131.525 2.3 130.9L0.975 132.575C2.375 133.325 4.225 134.4 5.15 135.125L6.525 133.25ZM3.55 146.675C4.6 144.35 5.775 141.375 6.675 138.75L4.8 137.525C3.8 140.375 2.45 143.55 1.45 145.475L3.55 146.675ZM14.2 134.5L11.725 135.275V130.95H14.3V128.775H11.725V124.15H9.6V128.775H6.825V130.95H9.6V135.95C8.35 136.325 7.2 136.675 6.275 136.95L7.15 139.225L9.6 138.375V143.85C9.6 144.2 9.475 144.275 9.15 144.275C8.825 144.3 7.8 144.3 6.7 144.275C7.025 144.925 7.3 145.975 7.4 146.6C9 146.6 10.125 146.5 10.825 146.1C11.5 145.725 11.725 145.05 11.725 143.825V137.6C12.65 137.3 13.6 136.95 14.55 136.6L14.2 134.5ZM23.975 132H17.425V127.875C19.475 127.35 21.65 126.7 23.35 125.925L21.65 124.125C20.1 124.95 17.525 125.8 15.275 126.4V134.85C15.275 138.175 15.05 142.4 12.75 145.375C13.25 145.625 14.15 146.325 14.5 146.725C17.025 143.575 17.425 138.525 17.425 134.85V134.175H19.725V146.975H21.85V134.175H23.975V132ZM33.325 127.125C32.3 126.35 30.275 125.15 28.85 124.4L27.5 126.025C28.95 126.875 30.95 128.15 31.9 128.95L33.325 127.125ZM31.975 133.6C30.925 132.85 28.8 131.775 27.375 131.125L26.1 132.825C27.625 133.6 29.675 134.775 30.675 135.525L31.975 133.6ZM31.625 137.2C30.2 140.025 28.275 143.225 26.925 145.1L28.9 146.675C30.35 144.325 32.025 141.325 33.325 138.75L31.625 137.2ZM42.05 143.1V128.575H47.675V126.25H34.275V128.575H39.525V143.1H33.025V145.425H48.95V143.1H42.05ZM58.925 139.675C58.075 139.975 57.175 140.25 56.325 140.525V134.875H58.7V132.725H56.325V127.75H59.1V125.6H51.15V127.75H54.1V132.725H51.4V134.875H54.1V141.225C52.9 141.6 51.8 141.9 50.9 142.15L51.45 144.525C53.7 143.8 56.6 142.825 59.325 141.875L58.925 139.675ZM62.3 131.7H65.575V134.425H62.3V131.7ZM62.3 127.125H65.575V129.825H62.3V127.125ZM70.75 129.825H67.55V127.125H70.75V129.825ZM70.75 134.425H67.55V131.7H70.75V134.425ZM67.75 144.05V141.075H73.3V138.975H67.75V136.4H72.975V125.15H60.175V136.4H65.375V138.975H59.95V141.075H65.375V144.05H58.125V146.175H74.1V144.05H67.75ZM88.725 142.825V129.125H97.425V126.725H77.675V129.125H86.125V142.825H76.35V145.15H98.725V142.825H88.725ZM123.475 133.35V130.95H113.4C113.7 128.475 113.725 126.075 113.75 124.05H111.225C111.2 126.05 111.225 128.45 110.925 130.95H101.625V133.35H110.5C109.5 137.875 107.075 142.375 101.125 144.975C101.775 145.475 102.525 146.3 102.9 146.925C108.575 144.25 111.275 139.925 112.55 135.4C114.5 140.7 117.525 144.75 122.2 146.925C122.575 146.225 123.35 145.25 123.925 144.75C119.2 142.775 116.05 138.55 114.35 133.35H123.475ZM129.175 130.125H145.875V133.2H148.175V128.075H144.3C145.05 127.15 145.85 126.025 146.55 124.975L144.175 124.175C143.65 125.35 142.7 126.925 141.825 128.075H138.125L139.5 127.525C139.2 126.5 138.325 124.95 137.525 123.8L135.475 124.575C136.15 125.625 136.875 127.05 137.225 128.075H132.275L133.275 127.575C132.85 126.65 131.85 125.275 130.95 124.25L128.975 125.15C129.725 126.05 130.5 127.175 130.95 128.075H127V133.2H129.175V130.125ZM148.55 138.025H138.625V137.25C140.8 136.25 142.975 134.9 144.55 133.475L143.05 132.3L142.575 132.425H130.85V134.45H139.95C138.825 135.15 137.5 135.85 136.25 136.325V138.025H126.575V140.175H136.25V144.225C136.25 144.575 136.125 144.675 135.65 144.7C135.125 144.725 133.375 144.725 131.625 144.675C132 145.275 132.425 146.275 132.6 146.9C134.775 146.9 136.25 146.875 137.275 146.525C138.3 146.2 138.625 145.55 138.625 144.275V140.175H148.55V138.025ZM13.725 178.825V165.125H22.425V162.725H2.675V165.125H11.125V178.825H1.35V181.15H23.725V178.825H13.725ZM46.025 165.575C45.1 168.45 43.4 172.1 42.075 174.375L44 175.375C45.35 173.025 46.975 169.575 48.15 166.6L46.025 165.575ZM32.525 174.35C31.875 172.1 30.375 168.35 29.125 165.5L27 166.175C28.225 169.05 29.625 172.9 30.2 175.2L32.525 174.35ZM41.775 179.45V160.375H39.4V179.45H35.625V160.35H33.25V179.45H26.525V181.75H48.5V179.45H41.775ZM64.2 163.05H68.15V166.45C68.15 168.6 68.575 169.425 70.575 169.425H72.325C72.85 169.425 73.4 169.4 73.725 169.275C73.65 168.75 73.575 167.925 73.525 167.325C73.225 167.425 72.65 167.475 72.3 167.475H70.775C70.4 167.475 70.35 167.225 70.35 166.525V160.9H62.05V163.6C62.05 165.375 61.55 167.325 58.35 168.75C58.8 169.075 59.6 170 59.875 170.45C63.45 168.8 64.2 166.075 64.2 163.675V163.05ZM58.3 164.15C57.5 163.125 55.775 161.525 54.425 160.425L52.925 161.85C54.275 163.025 55.975 164.7 56.725 165.775L58.3 164.15ZM56.625 177.9V167.725H51.15V169.95H54.4V178.275C54.4 179.4 53.65 180.225 53.15 180.6C53.575 181.025 54.15 182 54.375 182.55C54.775 182.025 55.5 181.425 59.975 177.9C59.7 177.45 59.325 176.575 59.125 175.975L56.625 177.9ZM69.6 173.05C68.75 174.8 67.575 176.225 66.15 177.4C64.65 176.175 63.45 174.725 62.6 173.05H69.6ZM71.1 170.8L70.725 170.875H59.6V173.05H61.1L60.45 173.275C61.425 175.375 62.7 177.2 64.275 178.675C62.5 179.775 60.425 180.5 58.25 180.95C58.675 181.45 59.175 182.35 59.35 182.975C61.8 182.35 64.075 181.45 66.075 180.125C67.925 181.45 70.1 182.425 72.625 183.05C72.925 182.4 73.55 181.45 74.05 180.975C71.75 180.525 69.725 179.75 67.975 178.675C70 176.875 71.6 174.5 72.55 171.425L71.1 170.8ZM83.85 164.075C83 163.025 81.175 161.475 79.775 160.375L78.3 161.875C79.675 163.05 81.45 164.725 82.275 165.775L83.85 164.075ZM82.35 177.9V167.725H76.2V170.025H79.975V178.3C79.975 179.4 79.225 180.175 78.7 180.475C79.125 181 79.7 182.025 79.9 182.65C80.325 182.1 81.1 181.5 85.9 178.025C85.7 177.575 85.325 176.6 85.175 175.925L82.35 177.9ZM98.95 168.075H92.9V160.125H90.425V168.075H84.275V170.475H90.425V182.975H92.9V170.475H98.95V168.075ZM106.75 175.45C105.5 177.15 103.475 178.9 101.55 180.025C102.15 180.375 103.125 181.125 103.575 181.575C105.425 180.275 107.625 178.25 109.1 176.275L106.75 175.45ZM119.575 173.5C120.275 174.3 120.825 175.075 121.225 175.725L123.05 174.6C122.05 173.05 119.975 170.75 118.1 169.025L116.325 169.95C116.9 170.5 117.475 171.1 118.075 171.725L108.625 172.35C112.125 170.65 115.7 168.475 119.025 165.9L117.3 164.4C116.125 165.375 114.825 166.325 113.55 167.2L107.95 167.5C109.625 166.3 111.25 164.9 112.75 163.4C115.95 163.075 119.025 162.6 121.475 162.025L119.8 160.125C115.725 161.1 108.65 161.75 102.625 162.025C102.875 162.55 103.15 163.475 103.2 164.05C105.225 163.975 107.35 163.85 109.525 163.675C108.025 165.175 106.425 166.4 105.85 166.8C105.1 167.3 104.525 167.675 104 167.75C104.225 168.3 104.575 169.35 104.65 169.8C105.175 169.6 105.975 169.475 110.525 169.175C108.6 170.35 107 171.2 106.175 171.575C104.65 172.35 103.575 172.8 102.725 172.925C102.975 173.55 103.325 174.625 103.425 175.025C104.15 174.75 105.175 174.6 111.5 174.1V180.15C111.5 180.45 111.4 180.525 111 180.55C110.575 180.575 109.15 180.575 107.75 180.5C108.125 181.125 108.5 182.125 108.625 182.775C110.45 182.775 111.775 182.75 112.675 182.4C113.6 182.05 113.875 181.4 113.875 180.2V173.925L119.575 173.5ZM115.7 176.55C117.7 178.075 120.175 180.225 121.35 181.6L123.375 180.225C122.075 178.825 119.55 176.75 117.575 175.325L115.7 176.55Z" fill="white"/>
<path d="M11.25 27.3438C12.3021 27.3438 13.1667 27.2344 13.8438 27.0156C15.0521 26.6094 16.0417 25.8281 16.8125 24.6719C17.4271 23.7448 17.8698 22.5573 18.1406 21.1094C18.2969 20.2448 18.375 19.4427 18.375 18.7031C18.375 15.8594 17.8073 13.651 16.6719 12.0781C15.5469 10.5052 13.7292 9.71875 11.2188 9.71875H5.70312V27.3438H11.25ZM2.57812 7.04688H11.875C15.0312 7.04688 17.4792 8.16667 19.2188 10.4062C20.7708 12.4271 21.5469 15.0156 21.5469 18.1719C21.5469 20.6094 21.0885 22.8125 20.1719 24.7812C18.5573 28.2604 15.7812 30 11.8438 30H2.57812V7.04688ZM25.8594 7.04688H42.5938V9.85938H28.8906V16.8281H41.5625V19.4844H28.8906V27.2656H42.8281V30H25.8594V7.04688ZM47.2031 7.04688H57.5312C59.5729 7.04688 61.2188 7.625 62.4688 8.78125C63.7188 9.92708 64.3438 11.5417 64.3438 13.625C64.3438 15.4167 63.7865 16.9792 62.6719 18.3125C61.5573 19.6354 59.8438 20.2969 57.5312 20.2969H50.3125V30H47.2031V7.04688ZM61.2031 13.6406C61.2031 11.9531 60.5781 10.8073 59.3281 10.2031C58.6406 9.88021 57.6979 9.71875 56.5 9.71875H50.3125V17.6719H56.5C57.8958 17.6719 59.026 17.375 59.8906 16.7812C60.7656 16.1875 61.2031 15.1406 61.2031 13.6406ZM77.6562 20.5938L74.1719 10.4531L70.4688 20.5938H77.6562ZM72.5469 7.04688H76.0625L84.3906 30H80.9844L78.6562 23.125H69.5781L67.0938 30H63.9062L72.5469 7.04688ZM97.8906 17.5625C99.349 17.5625 100.5 17.2708 101.344 16.6875C102.198 16.1042 102.625 15.0521 102.625 13.5312C102.625 11.8958 102.031 10.7812 100.844 10.1875C100.208 9.875 99.3594 9.71875 98.2969 9.71875H90.7031V17.5625H97.8906ZM87.5938 7.04688H98.2188C99.9688 7.04688 101.411 7.30208 102.547 7.8125C104.703 8.79167 105.781 10.599 105.781 13.2344C105.781 14.6094 105.495 15.7344 104.922 16.6094C104.359 17.4844 103.568 18.1875 102.547 18.7188C103.443 19.0833 104.115 19.5625 104.562 20.1562C105.021 20.75 105.276 21.7135 105.328 23.0469L105.438 26.125C105.469 27 105.542 27.651 105.656 28.0781C105.844 28.8073 106.177 29.276 106.656 29.4844V30H102.844C102.74 29.8021 102.656 29.5469 102.594 29.2344C102.531 28.9219 102.479 28.3177 102.438 27.4219L102.25 23.5938C102.177 22.0938 101.62 21.0885 100.578 20.5781C99.9844 20.2969 99.0521 20.1562 97.7812 20.1562H90.7031V30H87.5938V7.04688ZM126.484 7.04688V9.78125H118.75V30H115.594V9.78125H107.859V7.04688H126.484ZM129.266 7.04688H133.719L140.312 26.4531L146.859 7.04688H151.266V30H148.312V16.4531C148.312 15.9844 148.323 15.2083 148.344 14.125C148.365 13.0417 148.375 11.8802 148.375 10.6406L141.828 30H138.75L132.156 10.6406V11.3438C132.156 11.9062 132.167 12.7656 132.188 13.9219C132.219 15.0677 132.234 15.9115 132.234 16.4531V30H129.266V7.04688ZM156.297 7.04688H173.031V9.85938H159.328V16.8281H172V19.4844H159.328V27.2656H173.266V30H156.297V7.04688ZM177.344 7.04688H181.016L192.609 25.6406V7.04688H195.562V30H192.078L180.312 11.4219V30H177.344V7.04688ZM217.172 7.04688V9.78125H209.438V30H206.281V9.78125H198.547V7.04688H217.172ZM12.3438 43.4219C16.3958 43.4219 19.3958 44.724 21.3438 47.3281C22.8646 49.3594 23.625 51.9583 23.625 55.125C23.625 58.5521 22.7552 61.401 21.0156 63.6719C18.974 66.3385 16.0625 67.6719 12.2812 67.6719C8.75 67.6719 5.97396 66.5052 3.95312 64.1719C2.15104 61.9219 1.25 59.0781 1.25 55.6406C1.25 52.5365 2.02083 49.8802 3.5625 47.6719C5.54167 44.8385 8.46875 43.4219 12.3438 43.4219ZM12.6562 64.8906C15.3958 64.8906 17.375 63.9115 18.5938 61.9531C19.8229 59.9844 20.4375 57.724 20.4375 55.1719C20.4375 52.474 19.7292 50.3021 18.3125 48.6562C16.9062 47.0104 14.9792 46.1875 12.5312 46.1875C10.1562 46.1875 8.21875 47.0052 6.71875 48.6406C5.21875 50.2656 4.46875 52.6667 4.46875 55.8438C4.46875 58.3854 5.10938 60.5312 6.39062 62.2812C7.68229 64.0208 9.77083 64.8906 12.6562 64.8906ZM27.6406 44.0469H43.5625V46.8594H30.75V53.8281H42.0156V56.5625H30.75V67H27.6406V44.0469ZM3.14062 81.0469H6.28125V104H3.14062V81.0469ZM12.3038 81.0469H15.9756L27.5694 99.6406V81.0469H30.5225V104H27.0381L15.2725 85.4219V104H12.3038V81.0469ZM45.2012 101.344C46.2533 101.344 47.1179 101.234 47.795 101.016C49.0033 100.609 49.9929 99.8281 50.7637 98.6719C51.3783 97.7448 51.821 96.5573 52.0919 95.1094C52.2481 94.2448 52.3262 93.4427 52.3262 92.7031C52.3262 89.8594 51.7585 87.651 50.6231 86.0781C49.4981 84.5052 47.6804 83.7188 45.17 83.7188H39.6544V101.344H45.2012ZM36.5294 81.0469H45.8262C48.9825 81.0469 51.4304 82.1667 53.17 84.4062C54.7221 86.4271 55.4981 89.0156 55.4981 92.1719C55.4981 94.6094 55.0398 96.8125 54.1231 98.7812C52.5085 102.26 49.7325 104 45.795 104H36.5294V81.0469ZM63.8488 81.0469V95.2344C63.8488 96.901 64.1613 98.2865 64.7863 99.3906C65.7133 101.057 67.2758 101.891 69.4738 101.891C72.1092 101.891 73.9008 100.99 74.8488 99.1875C75.3592 98.2083 75.6144 96.8906 75.6144 95.2344V81.0469H78.7706V93.9375C78.7706 96.7604 78.3904 98.9323 77.63 100.453C76.2342 103.224 73.5988 104.609 69.7238 104.609C65.8488 104.609 63.2185 103.224 61.8331 100.453C61.0727 98.9323 60.6925 96.7604 60.6925 93.9375V81.0469H63.8488ZM86.59 96.5938C86.6629 97.8958 86.9702 98.9531 87.5119 99.7656C88.5431 101.286 90.3608 102.047 92.965 102.047C94.1317 102.047 95.1942 101.88 96.1525 101.547C98.0067 100.901 98.9337 99.7448 98.9337 98.0781C98.9337 96.8281 98.5431 95.9375 97.7619 95.4062C96.9702 94.8854 95.7306 94.4323 94.0431 94.0469L90.9337 93.3438C88.9025 92.8854 87.465 92.3802 86.6212 91.8281C85.1629 90.8698 84.4337 89.4375 84.4337 87.5312C84.4337 85.4688 85.1473 83.776 86.5744 82.4531C88.0015 81.1302 90.0223 80.4688 92.6369 80.4688C95.0431 80.4688 97.0848 81.0521 98.7619 82.2188C100.449 83.375 101.293 85.2292 101.293 87.7812H98.3712C98.215 86.5521 97.8817 85.6094 97.3712 84.9531C96.4233 83.7552 94.814 83.1562 92.5431 83.1562C90.7098 83.1562 89.3921 83.5417 88.59 84.3125C87.7879 85.0833 87.3869 85.9792 87.3869 87C87.3869 88.125 87.8556 88.9479 88.7931 89.4688C89.4077 89.8021 90.7983 90.2188 92.965 90.7188L96.1837 91.4531C97.7358 91.8073 98.9337 92.2917 99.7775 92.9062C101.236 93.9792 101.965 95.5365 101.965 97.5781C101.965 100.12 101.038 101.938 99.1837 103.031C97.34 104.125 95.1942 104.672 92.7462 104.672C89.8921 104.672 87.6577 103.943 86.0431 102.484C84.4285 101.036 83.6369 99.0729 83.6681 96.5938H86.59ZM123.566 81.0469V83.7812H115.831V104H112.675V83.7812H104.941V81.0469H123.566ZM138.057 91.5625C139.515 91.5625 140.666 91.2708 141.51 90.6875C142.364 90.1042 142.791 89.0521 142.791 87.5312C142.791 85.8958 142.198 84.7812 141.01 84.1875C140.375 83.875 139.526 83.7188 138.463 83.7188H130.869V91.5625H138.057ZM127.76 81.0469H138.385C140.135 81.0469 141.578 81.3021 142.713 81.8125C144.869 82.7917 145.948 84.599 145.948 87.2344C145.948 88.6094 145.661 89.7344 145.088 90.6094C144.526 91.4844 143.734 92.1875 142.713 92.7188C143.609 93.0833 144.281 93.5625 144.729 94.1562C145.187 94.75 145.442 95.7135 145.494 97.0469L145.604 100.125C145.635 101 145.708 101.651 145.823 102.078C146.01 102.807 146.343 103.276 146.823 103.484V104H143.01C142.906 103.802 142.823 103.547 142.76 103.234C142.698 102.922 142.645 102.318 142.604 101.422L142.416 97.5938C142.343 96.0938 141.786 95.0885 140.744 94.5781C140.151 94.2969 139.218 94.1562 137.948 94.1562H130.869V104H127.76V81.0469ZM152.173 81.0469H155.314V104H152.173V81.0469ZM173.117 94.5938L169.633 84.4531L165.93 94.5938H173.117ZM168.008 81.0469H171.524L179.852 104H176.446L174.117 97.125H165.039L162.555 104H159.367L168.008 81.0469ZM183.64 81.0469H186.749V101.266H198.374V104H183.64V81.0469ZM219.904 101.344C220.956 101.344 221.82 101.234 222.497 101.016C223.706 100.609 224.695 99.8281 225.466 98.6719C226.081 97.7448 226.524 96.5573 226.794 95.1094C226.951 94.2448 227.029 93.4427 227.029 92.7031C227.029 89.8594 226.461 87.651 225.326 86.0781C224.201 84.5052 222.383 83.7188 219.872 83.7188H214.357V101.344H219.904ZM211.232 81.0469H220.529C223.685 81.0469 226.133 82.1667 227.872 84.4062C229.425 86.4271 230.201 89.0156 230.201 92.1719C230.201 94.6094 229.742 96.8125 228.826 98.7812C227.211 102.26 224.435 104 220.497 104H211.232V81.0469ZM235.473 81.0469H252.208V83.8594H238.504V90.8281H251.176V93.4844H238.504V101.266H252.442V104H235.473V81.0469ZM259.511 96.5938C259.584 97.8958 259.891 98.9531 260.433 99.7656C261.464 101.286 263.282 102.047 265.886 102.047C267.053 102.047 268.115 101.88 269.074 101.547C270.928 100.901 271.855 99.7448 271.855 98.0781C271.855 96.8281 271.464 95.9375 270.683 95.4062C269.891 94.8854 268.652 94.4323 266.964 94.0469L263.855 93.3438C261.824 92.8854 260.386 92.3802 259.542 91.8281C258.084 90.8698 257.355 89.4375 257.355 87.5312C257.355 85.4688 258.069 83.776 259.496 82.4531C260.923 81.1302 262.944 80.4688 265.558 80.4688C267.964 80.4688 270.006 81.0521 271.683 82.2188C273.371 83.375 274.214 85.2292 274.214 87.7812H271.292C271.136 86.5521 270.803 85.6094 270.292 84.9531C269.345 83.7552 267.735 83.1562 265.464 83.1562C263.631 83.1562 262.313 83.5417 261.511 84.3125C260.709 85.0833 260.308 85.9792 260.308 87C260.308 88.125 260.777 88.9479 261.714 89.4688C262.329 89.8021 263.72 90.2188 265.886 90.7188L269.105 91.4531C270.657 91.8073 271.855 92.2917 272.699 92.9062C274.157 93.9792 274.886 95.5365 274.886 97.5781C274.886 100.12 273.959 101.938 272.105 103.031C270.261 104.125 268.115 104.672 265.667 104.672C262.813 104.672 260.579 103.943 258.964 102.484C257.35 101.036 256.558 99.0729 256.589 96.5938H259.511ZM280.487 81.0469H283.628V104H280.487V81.0469ZM299.572 80.4531C301.728 80.4531 303.593 80.8698 305.166 81.7031C307.447 82.901 308.843 85 309.353 88H306.275C305.9 86.3229 305.124 85.1042 303.947 84.3438C302.77 83.5729 301.285 83.1875 299.494 83.1875C297.369 83.1875 295.577 83.9844 294.119 85.5781C292.671 87.1719 291.947 89.5469 291.947 92.7031C291.947 95.4323 292.546 97.6562 293.744 99.375C294.942 101.083 296.895 101.938 299.603 101.938C301.676 101.938 303.39 101.339 304.744 100.141C306.108 98.9323 306.806 96.9844 306.837 94.2969H299.65V91.7188H309.728V104H307.728L306.978 101.047C305.926 102.203 304.994 103.005 304.181 103.453C302.817 104.224 301.082 104.609 298.978 104.609C296.259 104.609 293.921 103.729 291.962 101.969C289.827 99.7604 288.759 96.7292 288.759 92.875C288.759 89.0312 289.801 85.974 291.884 83.7031C293.864 81.5365 296.426 80.4531 299.572 80.4531ZM315.516 81.0469H319.188L330.782 99.6406V81.0469H333.735V104H330.251L318.485 85.4219V104H315.516V81.0469Z" fill="white"/>
</svg>
